<?xml version="1.0" encoding="UTF-8"?>
<!DOCTYPE svg PUBLIC "-//W3C//DTD SVG 1.1//EN" "http://www.w3.org/Graphics/SVG/1.1/DTD/svg11.dtd">
<svg xmlns="http://www.w3.org/2000/svg" version="1.1" width="626px" height="376px" style="shape-rendering:geometricPrecision; text-rendering:geometricPrecision; image-rendering:optimizeQuality; fill-rule:evenodd; clip-rule:evenodd" xmlns:xlink="http://www.w3.org/1999/xlink">
<g><path style="opacity:1" fill="#fefefe" d="M -0.5,-0.5 C 208.167,-0.5 416.833,-0.5 625.5,-0.5C 625.5,124.833 625.5,250.167 625.5,375.5C 416.833,375.5 208.167,375.5 -0.5,375.5C -0.5,250.167 -0.5,124.833 -0.5,-0.5 Z"/></g>
<g><path style="opacity:1" fill="#98c1df" d="M 275.5,62.5 C 290.5,62.5 305.5,62.5 320.5,62.5C 320.5,66.8333 320.5,71.1667 320.5,75.5C 319.118,99.8584 316.451,124.192 312.5,148.5C 311.469,150.961 310.802,153.627 310.5,156.5C 309.285,160.95 307.451,165.283 305,169.5C 304.537,173.838 304.037,178.171 303.5,182.5C 304.469,198.842 305.469,215.176 306.5,231.5C 306.325,233.621 306.659,235.621 307.5,237.5C 308.011,248.513 308.677,259.513 309.5,270.5C 309.942,274.154 310.276,277.821 310.5,281.5C 304.027,281.081 297.694,281.747 291.5,283.5C 290.818,282.757 290.151,282.091 289.5,281.5C 289.724,254.153 289.224,226.82 288,199.5C 287.039,221.495 286.205,243.495 285.5,265.5C 285.505,271.211 286.172,276.544 287.5,281.5C 285.321,282.926 282.821,283.592 280,283.5C 276.833,283.099 273.666,282.766 270.5,282.5C 271.466,261.941 273.132,241.441 275.5,221C 275.472,219.93 275.139,219.097 274.5,218.5C 276.349,207.243 278.682,196.076 281.5,185C 281.164,183.97 280.497,183.47 279.5,183.5C 279.337,178.453 279.671,173.453 280.5,168.5C 287.808,171.485 295.141,174.485 302.5,177.5C 303.474,175.257 303.808,172.924 303.5,170.5C 296.121,169.874 288.788,168.874 281.5,167.5C 280.584,167.543 279.917,167.876 279.5,168.5C 276.904,167.945 274.571,166.945 272.5,165.5C 273.833,165.5 274.5,164.833 274.5,163.5C 275.374,165.69 277.041,166.69 279.5,166.5C 278.705,131.811 277.372,97.1448 275.5,62.5 Z"/></g>
<g><path style="opacity:1" fill="#98c1df" d="M 491.5,61.5 C 506.5,61.5 521.5,61.5 536.5,61.5C 534.695,96.4925 533.028,131.492 531.5,166.5C 536.079,166.34 536.412,167.007 532.5,168.5C 524.544,167.869 516.544,168.703 508.5,171C 507.577,173.041 507.244,175.208 507.5,177.5C 515.454,174.529 523.454,171.529 531.5,168.5C 534.427,200.174 537.427,231.841 540.5,263.5C 541.306,269.528 541.306,275.528 540.5,281.5C 537.041,282.304 533.541,282.971 530,283.5C 528.124,283.475 526.624,282.809 525.5,281.5C 526.494,271.681 526.827,261.681 526.5,251.5C 527.162,247.534 527.495,243.534 527.5,239.5C 529.04,237.162 529.706,234.495 529.5,231.5C 531.95,224.084 533.45,216.417 534,208.5C 533.617,209.056 533.117,209.389 532.5,209.5C 531.167,209.5 529.833,209.5 528.5,209.5C 527.542,209.047 526.708,208.381 526,207.5C 528.707,192.05 522.54,185.383 507.5,187.5C 505.753,180.436 504.919,173.102 505,165.5C 504.722,164.584 504.222,163.918 503.5,163.5C 502.328,158.01 500.994,152.677 499.5,147.5C 496.34,127.623 494.006,107.623 492.5,87.5C 492.073,83.1756 491.739,78.8422 491.5,74.5C 491.5,70.1667 491.5,65.8333 491.5,61.5 Z"/></g>
<g><path style="opacity:1" fill="#c4d4e9" d="M 275.5,62.5 C 275.5,62.1667 275.5,61.8333 275.5,61.5C 290.833,61.5 306.167,61.5 321.5,61.5C 321.5,64.1667 321.5,66.8333 321.5,69.5C 377.833,69.5 434.167,69.5 490.5,69.5C 490.194,66.6146 490.527,63.9479 491.5,61.5C 491.5,65.8333 491.5,70.1667 491.5,74.5C 472.992,74.1698 454.659,74.5032 436.5,75.5C 436.167,75.5 435.833,75.5 435.5,75.5C 401.339,74.2691 367.339,74.2691 333.5,75.5C 329.167,75.5 324.833,75.5 320.5,75.5C 320.5,71.1667 320.5,66.8333 320.5,62.5C 305.5,62.5 290.5,62.5 275.5,62.5 Z"/></g>
<g><path style="opacity:1" fill="#edf1f8" d="M 320.5,75.5 C 324.833,75.5 329.167,75.5 333.5,75.5C 351.179,75.1671 368.846,75.5005 386.5,76.5C 380.372,82.6165 374.705,88.9498 369.5,95.5C 367.856,95.8102 366.856,96.8102 366.5,98.5C 350.15,115.849 333.816,133.183 317.5,150.5C 314.672,152.401 313.006,151.734 312.5,148.5C 316.451,124.192 319.118,99.8584 320.5,75.5 Z"/></g>
<g><path style="opacity:1" fill="#4b86b0" d="M 517.5,79.5 C 519.22,81.6581 520.053,84.3248 520,87.5C 521.499,108.149 522.166,128.815 522,149.5C 520.615,144.239 519.615,138.906 519,133.5C 517.807,115.52 517.307,97.5196 517.5,79.5 Z"/></g>
<g><path style="opacity:1" fill="#4a87b0" d="M 292.5,79.5 C 293.83,85.2953 294.496,91.462 294.5,98C 295.005,116.77 293.172,135.27 289,153.5C 289.573,128.828 290.739,104.161 292.5,79.5 Z"/></g>
<g><path style="opacity:1" fill="#f3f5fa" d="M 492.5,87.5 C 494.006,107.623 496.34,127.623 499.5,147.5C 499.5,148.5 499.5,149.5 499.5,150.5C 492.776,150.244 486.109,150.577 479.5,151.5C 480.428,145.342 477.762,141.009 471.5,138.5C 470.583,139.127 469.583,139.461 468.5,139.5C 466.712,138.378 464.712,138.211 462.5,139C 462.167,140 461.833,141 461.5,142C 462.044,142.717 462.711,143.217 463.5,143.5C 464.338,143.842 464.672,144.508 464.5,145.5C 461.304,152.919 461.97,159.919 466.5,166.5C 469.833,166.5 471.5,164.833 471.5,161.5C 473.154,160.25 474.821,158.916 476.5,157.5C 475.37,159.315 474.704,161.315 474.5,163.5C 475.675,163.281 476.675,163.614 477.5,164.5C 476.66,165.735 475.66,166.735 474.5,167.5C 473.167,168.167 471.833,168.833 470.5,169.5C 469.047,167.771 467.047,166.771 464.5,166.5C 463.145,167.188 462.145,168.188 461.5,169.5C 458.095,173.295 455.429,177.628 453.5,182.5C 451.238,183.963 449.238,185.796 447.5,188C 448.664,190.542 447.664,191.875 444.5,192C 445.448,192.483 446.448,192.649 447.5,192.5C 447.167,195.5 445.5,197.167 442.5,197.5C 440.45,184.302 439.95,170.969 441,157.5C 446.287,156.787 451.621,156.12 457,155.5C 457.945,155.905 458.612,156.572 459,157.5C 460.352,155.406 460.852,153.073 460.5,150.5C 453.833,150.5 447.167,150.5 440.5,150.5C 440.219,145.435 440.552,140.435 441.5,135.5C 458.253,118.175 474.753,100.509 491,82.5C 491.198,84.3817 491.698,86.0484 492.5,87.5 Z"/></g>
<g><path style="opacity:1" fill="#e3eaf4" d="M 333.5,75.5 C 367.339,74.2691 401.339,74.2691 435.5,75.5C 420.196,92.971 404.363,109.971 388,126.5C 384.011,132.317 379.511,137.651 374.5,142.5C 374.582,138.385 374.915,134.219 375.5,130C 375.167,129.5 374.833,129 374.5,128.5C 373.719,129.729 373.219,131.062 373,132.5C 372.667,131.5 372.333,130.5 372,129.5C 371.804,121.118 371.304,112.785 370.5,104.5C 372.188,101.039 371.854,98.0394 369.5,95.5C 374.705,88.9498 380.372,82.6165 386.5,76.5C 368.846,75.5005 351.179,75.1671 333.5,75.5 Z"/></g>
<g><path style="opacity:1" fill="#4885af" d="M 503.5,75.5 C 504.941,92.6595 506.108,109.993 507,127.5C 507.771,136.029 509.104,144.362 511,152.5C 506.576,143.738 503.909,134.405 503,124.5C 502.26,108.149 502.427,91.8155 503.5,75.5 Z"/></g>
<g><path style="opacity:1" fill="#4a85af" d="M 307.5,76.5 C 308.309,78.2922 308.809,80.2922 309,82.5C 310.043,100.241 309.376,117.908 307,135.5C 305.982,141.556 303.982,147.223 301,152.5C 301.965,147.575 302.965,142.575 304,137.5C 305.394,117.177 306.561,96.8432 307.5,76.5 Z"/></g>
<g><path style="opacity:1" fill="#e0e8f3" d="M 436.5,75.5 C 454.659,74.5032 472.992,74.1698 491.5,74.5C 491.739,78.8422 492.073,83.1756 492.5,87.5C 491.698,86.0484 491.198,84.3817 491,82.5C 474.753,100.509 458.253,118.175 441.5,135.5C 440.552,140.435 440.219,145.435 440.5,150.5C 447.167,150.5 453.833,150.5 460.5,150.5C 460.852,153.073 460.352,155.406 459,157.5C 458.612,156.572 457.945,155.905 457,155.5C 451.621,156.12 446.287,156.787 441,157.5C 439.95,170.969 440.45,184.302 442.5,197.5C 445.5,197.167 447.167,195.5 447.5,192.5C 446.448,192.649 445.448,192.483 444.5,192C 447.664,191.875 448.664,190.542 447.5,188C 449.238,185.796 451.238,183.963 453.5,182.5C 452.354,186.754 451.687,191.087 451.5,195.5C 450.566,196.568 450.232,197.901 450.5,199.5C 447.167,199.5 443.833,199.5 440.5,199.5C 439.432,198.566 438.099,198.232 436.5,198.5C 436.5,196.833 436.5,195.167 436.5,193.5C 435.325,193.719 434.325,193.386 433.5,192.5C 434.788,186.84 435.455,181.007 435.5,175C 435.333,169.5 435.167,164 435,158.5C 434,157.5 433,156.5 432,155.5C 427.935,155.94 424.102,157.106 420.5,159C 411.72,168.724 403.053,178.557 394.5,188.5C 393.169,186.133 391.836,183.8 390.5,181.5C 389.833,179.833 389.167,178.167 388.5,176.5C 388.662,174.473 388.495,172.473 388,170.5C 387.586,170.043 387.086,169.709 386.5,169.5C 381.839,170.227 377.172,170.893 372.5,171.5C 371.456,166.323 370.956,160.989 371,155.5C 375.026,155.466 379.193,155.299 383.5,155C 379.148,154.581 378.815,153.914 382.5,153C 381.833,152.667 381.167,152.333 380.5,152C 377.305,151.819 374.305,151.319 371.5,150.5C 380.857,150.832 390.19,150.498 399.5,149.5C 401.949,147.224 403.782,144.558 405,141.5C 411.897,137.279 417.397,131.612 421.5,124.5C 428.527,118.14 435.194,111.473 441.5,104.5C 444.732,101.136 447.566,97.4693 450,93.5C 455.99,88.3429 461.49,82.6762 466.5,76.5C 456.522,75.5015 446.522,75.1681 436.5,75.5 Z"/></g>
<g><path style="opacity:1" fill="#f0f3f9" d="M 435.5,75.5 C 435.833,75.5 436.167,75.5 436.5,75.5C 446.522,75.1681 456.522,75.5015 466.5,76.5C 461.49,82.6762 455.99,88.3429 450,93.5C 447.566,97.4693 444.732,101.136 441.5,104.5C 435.194,111.473 428.527,118.14 421.5,124.5C 417.397,131.612 411.897,137.279 405,141.5C 403.782,144.558 401.949,147.224 399.5,149.5C 390.19,150.498 380.857,150.832 371.5,150.5C 371.5,148.167 371.5,145.833 371.5,143.5C 372.791,143.737 373.791,143.404 374.5,142.5C 379.511,137.651 384.011,132.317 388,126.5C 404.363,109.971 420.196,92.971 435.5,75.5 Z"/></g>
<g><path style="opacity:1" fill="#89786b" d="M 468.5,139.5 C 466.712,139.215 465.045,139.548 463.5,140.5C 464.791,141.527 464.791,142.527 463.5,143.5C 462.711,143.217 462.044,142.717 461.5,142C 461.833,141 462.167,140 462.5,139C 464.712,138.211 466.712,138.378 468.5,139.5 Z"/></g>
<g><path style="opacity:1" fill="#572f12" d="M 479.5,151.5 C 478.471,153.517 477.471,155.517 476.5,157.5C 474.821,158.916 473.154,160.25 471.5,161.5C 472.389,159.264 473.722,157.264 475.5,155.5C 474.02,154.887 472.687,154.554 471.5,154.5C 473.256,152.809 473.756,150.809 473,148.5C 470.507,146.664 467.674,145.664 464.5,145.5C 464.672,144.508 464.338,143.842 463.5,143.5C 464.791,142.527 464.791,141.527 463.5,140.5C 465.045,139.548 466.712,139.215 468.5,139.5C 469.583,139.461 470.583,139.127 471.5,138.5C 477.762,141.009 480.428,145.342 479.5,151.5 Z"/></g>
<g><path style="opacity:1" fill="#e2e9f4" d="M 366.5,98.5 C 366.299,101.728 366.633,104.895 367.5,108C 366.167,110 364.833,112 363.5,114C 363.905,114.945 364.572,115.612 365.5,116C 363.619,119.634 362.785,123.468 363,127.5C 363.853,129.125 364.853,129.458 366,128.5C 366.5,135.826 366.666,143.159 366.5,150.5C 350.167,150.5 333.833,150.5 317.5,150.5C 333.816,133.183 350.15,115.849 366.5,98.5 Z"/></g>
<g><path style="opacity:1" fill="#d2dced" d="M 369.5,95.5 C 371.854,98.0394 372.188,101.039 370.5,104.5C 371.304,112.785 371.804,121.118 372,129.5C 372.333,130.5 372.667,131.5 373,132.5C 373.219,131.062 373.719,129.729 374.5,128.5C 374.833,129 375.167,129.5 375.5,130C 374.915,134.219 374.582,138.385 374.5,142.5C 373.791,143.404 372.791,143.737 371.5,143.5C 371.5,145.833 371.5,148.167 371.5,150.5C 374.305,151.319 377.305,151.819 380.5,152C 381.167,152.333 381.833,152.667 382.5,153C 378.815,153.914 379.148,154.581 383.5,155C 379.193,155.299 375.026,155.466 371,155.5C 370.956,160.989 371.456,166.323 372.5,171.5C 369.446,173.28 368.279,175.946 369,179.5C 370.072,184.812 372.572,189.312 376.5,193C 377.448,193.483 378.448,193.649 379.5,193.5C 379.5,195.167 379.5,196.833 379.5,198.5C 378.778,198.082 378.278,197.416 378,196.5C 375.809,197.833 373.976,199.5 372.5,201.5C 370.292,202.023 368.792,203.356 368,205.5C 366.805,209.751 366.305,214.085 366.5,218.5C 365.549,217.081 365.216,215.415 365.5,213.5C 366.421,194.52 366.754,175.52 366.5,156.5C 347.833,156.5 329.167,156.5 310.5,156.5C 310.802,153.627 311.469,150.961 312.5,148.5C 313.006,151.734 314.672,152.401 317.5,150.5C 333.833,150.5 350.167,150.5 366.5,150.5C 366.666,143.159 366.5,135.826 366,128.5C 364.853,129.458 363.853,129.125 363,127.5C 362.785,123.468 363.619,119.634 365.5,116C 364.572,115.612 363.905,114.945 363.5,114C 364.833,112 366.167,110 367.5,108C 366.633,104.895 366.299,101.728 366.5,98.5C 366.856,96.8102 367.856,95.8102 369.5,95.5 Z"/></g>
<g><path style="opacity:1" fill="#f9b683" d="M 464.5,145.5 C 467.674,145.664 470.507,146.664 473,148.5C 473.756,150.809 473.256,152.809 471.5,154.5C 472.687,154.554 474.02,154.887 475.5,155.5C 473.722,157.264 472.389,159.264 471.5,161.5C 471.5,164.833 469.833,166.5 466.5,166.5C 461.97,159.919 461.304,152.919 464.5,145.5 Z"/></g>
<g><path style="opacity:1" fill="#e2e9f4" d="M 310.5,156.5 C 329.167,156.5 347.833,156.5 366.5,156.5C 366.754,175.52 366.421,194.52 365.5,213.5C 365.167,213.5 364.833,213.5 364.5,213.5C 364.5,212.167 364.5,210.833 364.5,209.5C 357.167,209.5 349.833,209.5 342.5,209.5C 342.263,210.791 342.596,211.791 343.5,212.5C 345.142,218.044 346.142,223.71 346.5,229.5C 333.542,231.481 320.209,232.148 306.5,231.5C 305.469,215.176 304.469,198.842 303.5,182.5C 304.037,178.171 304.537,173.838 305,169.5C 307.451,165.283 309.285,160.95 310.5,156.5 Z"/></g>
<g><path style="opacity:1" fill="#dbe4f1" d="M 499.5,147.5 C 500.994,152.677 502.328,158.01 503.5,163.5C 500.702,164.706 498.535,166.706 497,169.5C 496.667,169.167 496.333,168.833 496,168.5C 494.853,172.317 492.353,174.651 488.5,175.5C 488.649,176.552 488.483,177.552 488,178.5C 485.84,180.717 483.673,182.717 481.5,184.5C 481.5,183.833 481.167,183.5 480.5,183.5C 481.614,180.823 481.614,178.156 480.5,175.5C 478.929,174.691 477.262,174.357 475.5,174.5C 478.973,172.236 478.64,169.902 474.5,167.5C 475.66,166.735 476.66,165.735 477.5,164.5C 476.675,163.614 475.675,163.281 474.5,163.5C 474.704,161.315 475.37,159.315 476.5,157.5C 477.471,155.517 478.471,153.517 479.5,151.5C 486.109,150.577 492.776,150.244 499.5,150.5C 499.5,149.5 499.5,148.5 499.5,147.5 Z"/></g>
<g><path style="opacity:1" fill="#ebeff7" d="M 440.5,199.5 C 440.5,200.167 440.5,200.833 440.5,201.5C 438.612,202.275 436.612,202.275 434.5,201.5C 433.199,202.882 432.366,204.548 432,206.5C 429.75,207.708 427.583,209.041 425.5,210.5C 422.886,214.451 419.886,218.117 416.5,221.5C 415.542,219.376 414.375,217.376 413,215.5C 411.412,217.968 409.578,218.134 407.5,216C 409.25,214.246 409.917,212.079 409.5,209.5C 405.317,208.686 401.317,207.353 397.5,205.5C 396.583,206.127 395.583,206.461 394.5,206.5C 392.194,203.527 389.527,200.86 386.5,198.5C 385.609,197.89 384.609,197.557 383.5,197.5C 383.5,196.5 383.5,195.5 383.5,194.5C 385.467,194.739 387.301,194.406 389,193.5C 390.354,189.637 390.854,185.637 390.5,181.5C 391.836,183.8 393.169,186.133 394.5,188.5C 403.053,178.557 411.72,168.724 420.5,159C 424.102,157.106 427.935,155.94 432,155.5C 433,156.5 434,157.5 435,158.5C 435.167,164 435.333,169.5 435.5,175C 435.455,181.007 434.788,186.84 433.5,192.5C 434.325,193.386 435.325,193.719 436.5,193.5C 436.5,195.167 436.5,196.833 436.5,198.5C 438.099,198.232 439.432,198.566 440.5,199.5 Z"/></g>
<g><path style="opacity:1" fill="#f0f3f9" d="M 275.5,61.5 C 275.5,61.8333 275.5,62.1667 275.5,62.5C 277.372,97.1448 278.705,131.811 279.5,166.5C 277.041,166.69 275.374,165.69 274.5,163.5C 273.167,163.5 272.5,164.167 272.5,165.5C 274.571,166.945 276.904,167.945 279.5,168.5C 279.833,168.5 280.167,168.5 280.5,168.5C 279.671,173.453 279.337,178.453 279.5,183.5C 273.5,183.5 267.5,183.5 261.5,183.5C 260.657,185.487 259.99,187.654 259.5,190C 259.164,191.03 258.497,191.53 257.5,191.5C 259.652,183.444 258.818,175.777 255,168.5C 251.932,165.262 248.765,162.262 245.5,159.5C 247.154,154.94 247.654,150.274 247,145.5C 244.638,144.648 242.805,143.148 241.5,141C 233.93,139.096 230.263,141.929 230.5,149.5C 230.335,152.85 230.502,156.183 231,159.5C 232.335,162.641 234.168,165.308 236.5,167.5C 234.167,167.833 232.833,169.167 232.5,171.5C 229.838,173.996 227.338,176.662 225,179.5C 225.685,190.839 225.518,202.172 224.5,213.5C 223.596,214.209 223.263,215.209 223.5,216.5C 223.5,217.167 223.5,217.833 223.5,218.5C 223.167,218.5 222.833,218.5 222.5,218.5C 222.099,215.6 220.765,214.933 218.5,216.5C 215.744,214.729 212.744,213.729 209.5,213.5C 208.377,219.966 207.71,219.966 207.5,213.5C 202.636,212.1 197.636,211.433 192.5,211.5C 192.771,213.38 192.104,214.713 190.5,215.5C 190.889,212.447 190.223,209.78 188.5,207.5C 187.659,205.621 187.325,203.621 187.5,201.5C 187.665,198.482 187.498,195.482 187,192.5C 183.899,195.779 182.732,199.779 183.5,204.5C 182.857,206.076 181.857,207.41 180.5,208.5C 178.964,210.025 177.964,212.025 177.5,214.5C 176.262,210.689 175.596,210.689 175.5,214.5C 174.209,214.263 173.209,214.596 172.5,215.5C 171.833,215.5 171.167,215.5 170.5,215.5C 163.989,213.257 157.323,212.924 150.5,214.5C 150.832,203.147 150.499,191.814 149.5,180.5C 148.893,180.624 148.56,180.957 148.5,181.5C 145.574,182.698 142.574,183.698 139.5,184.5C 133.5,184.5 127.5,184.5 121.5,184.5C 121.5,186.167 121.5,187.833 121.5,189.5C 120.691,187.708 120.191,185.708 120,183.5C 118.855,182.316 117.688,182.316 116.5,183.5C 122.494,180.212 125.494,174.879 125.5,167.5C 125.489,165.955 125.156,164.622 124.5,163.5C 123.554,160.719 121.721,158.719 119,157.5C 116.301,160.197 113.301,162.53 110,164.5C 110.153,167.174 110.653,169.84 111.5,172.5C 112.775,175.604 112.775,178.604 111.5,181.5C 110.833,181.5 110.167,181.5 109.5,181.5C 104.167,181.5 98.8333,181.5 93.5,181.5C 92.8614,182.097 92.528,182.93 92.5,184C 96.8732,204.866 101.373,225.7 106,246.5C 108.253,247.61 109.419,249.443 109.5,252C 108.229,257.794 107.229,263.627 106.5,269.5C 87.3398,268.961 69.6731,273.627 53.5,283.5C 32.36,248.284 36.6933,216.617 66.5,188.5C 77.6761,176.827 89.6761,165.994 102.5,156C 144.007,124.729 188.34,97.7288 235.5,75C 246.348,70.4141 257.348,66.0808 268.5,62C 270.81,61.5034 273.143,61.3367 275.5,61.5 Z"/></g>
<g><path style="opacity:1" fill="#ac5d20" d="M 124.5,163.5 C 124.649,164.552 124.483,165.552 124,166.5C 121.333,165.167 118.667,165.167 116,166.5C 115.695,168.557 115.695,170.557 116,172.5C 114.35,169.894 112.85,169.894 111.5,172.5C 110.653,169.84 110.153,167.174 110,164.5C 113.301,162.53 116.301,160.197 119,157.5C 121.721,158.719 123.554,160.719 124.5,163.5 Z"/></g>
<g><path style="opacity:1" fill="#235177" d="M 274.5,163.5 C 274.5,164.833 273.833,165.5 272.5,165.5C 272.5,164.167 273.167,163.5 274.5,163.5 Z"/></g>
<g><path style="opacity:1" fill="#fbb581" d="M 240.5,167.5 C 239.5,167.5 238.5,167.5 237.5,167.5C 237.167,167.5 236.833,167.5 236.5,167.5C 234.168,165.308 232.335,162.641 231,159.5C 230.502,156.183 230.335,152.85 230.5,149.5C 233.335,148.214 236.168,148.214 239,149.5C 239.226,152.451 240.392,154.951 242.5,157C 241.277,158.72 240.277,160.553 239.5,162.5C 240.046,164.135 240.38,165.801 240.5,167.5 Z"/></g>
<g><path style="opacity:1" fill="#c09d83" d="M 157.5,122.5 C 177.833,122.5 198.167,122.5 218.5,122.5C 218.5,134.5 218.5,146.5 218.5,158.5C 198.167,158.5 177.833,158.5 157.5,158.5C 157.5,146.5 157.5,134.5 157.5,122.5 Z"/></g>
<g><path style="opacity:1" fill="#eccbb1" d="M 216.5,125.5 C 197.5,125.5 178.5,125.5 159.5,125.5C 159.5,135.5 159.5,145.5 159.5,155.5C 178.5,155.5 197.5,155.5 216.5,155.5C 197.341,156.497 178.007,156.83 158.5,156.5C 158.5,145.833 158.5,135.167 158.5,124.5C 178.007,124.17 197.341,124.503 216.5,125.5 Z"/></g>
<g><path style="opacity:1" fill="#f9fcfa" d="M 216.5,125.5 C 217.833,135.5 217.833,145.5 216.5,155.5C 197.5,155.5 178.5,155.5 159.5,155.5C 159.5,145.5 159.5,135.5 159.5,125.5C 178.5,125.5 197.5,125.5 216.5,125.5 Z"/></g>
<g><path style="opacity:1" fill="#f9d8f6" d="M 170.5,139.5 C 173.076,141.888 174.076,144.888 173.5,148.5C 167.175,151.242 163.342,149.242 162,142.5C 161.505,140.527 161.338,138.527 161.5,136.5C 164.884,136.517 167.884,137.517 170.5,139.5 Z"/></g>
<g><path style="opacity:1" fill="#f6d8f5" d="M 203.5,149.5 C 200.408,145.041 201.075,141.375 205.5,138.5C 207.997,136.129 210.997,135.129 214.5,135.5C 214.882,139.976 213.715,143.976 211,147.5C 208.699,148.867 206.199,149.534 203.5,149.5 Z"/></g>
<g><path style="opacity:1" fill="#88e0f5" d="M 187.5,134.5 C 191.021,136.873 193.188,140.206 194,144.5C 194.195,140.812 196.029,138.478 199.5,137.5C 203.341,129.548 205.341,129.881 205.5,138.5C 201.075,141.375 200.408,145.041 203.5,149.5C 201.801,149.62 200.135,149.954 198.5,150.5C 196.361,149.023 194.028,148.023 191.5,147.5C 192.341,145.621 192.675,143.621 192.5,141.5C 191.127,141.657 189.793,141.49 188.5,141C 188.056,139.467 187.723,137.967 187.5,136.5C 186.476,137.853 185.143,138.52 183.5,138.5C 183.978,135.722 182.978,133.722 180.5,132.5C 179.146,135.067 179.48,137.401 181.5,139.5C 178.047,140.479 177.714,141.979 180.5,144C 179.026,145.316 177.359,146.316 175.5,147C 178.742,147.406 181.742,148.239 184.5,149.5C 182.192,149.914 179.858,150.247 177.5,150.5C 175.667,150.415 174.334,149.748 173.5,148.5C 174.076,144.888 173.076,141.888 170.5,139.5C 169.659,137.621 169.325,135.621 169.5,133.5C 172.757,133.764 174.757,135.43 175.5,138.5C 176.5,138.5 177.5,138.5 178.5,138.5C 178.5,136.167 178.5,133.833 178.5,131.5C 181.658,131.983 184.658,132.983 187.5,134.5 Z"/></g>
<g><path style="opacity:1" fill="#80eaf4" d="M 191.5,147.5 C 189.936,150.477 187.603,151.144 184.5,149.5C 181.742,148.239 178.742,147.406 175.5,147C 177.359,146.316 179.026,145.316 180.5,144C 177.714,141.979 178.047,140.479 181.5,139.5C 179.48,137.401 179.146,135.067 180.5,132.5C 182.978,133.722 183.978,135.722 183.5,138.5C 185.143,138.52 186.476,137.853 187.5,136.5C 187.723,137.967 188.056,139.467 188.5,141C 189.793,141.49 191.127,141.657 192.5,141.5C 192.675,143.621 192.341,145.621 191.5,147.5 Z"/></g>
<g><path style="opacity:1" fill="#f2d4f5" d="M 199.5,137.5 C 196.029,138.478 194.195,140.812 194,144.5C 193.188,140.206 191.021,136.873 187.5,134.5C 188.696,132.019 190.196,132.019 192,134.5C 192.483,133.552 192.649,132.552 192.5,131.5C 193.5,131.5 194.5,131.5 195.5,131.5C 195.343,132.873 195.51,134.207 196,135.5C 199.042,130.188 200.209,130.855 199.5,137.5 Z"/></g>
<g><path style="opacity:1" fill="#91735d" d="M 237.5,167.5 C 238.5,167.5 239.5,167.5 240.5,167.5C 242.38,167.229 243.713,167.896 244.5,169.5C 243.391,169.443 242.391,169.11 241.5,168.5C 239.901,168.768 238.568,168.434 237.5,167.5 Z"/></g>
<g><path style="opacity:1" fill="#6f97c3" d="M 470.5,169.5 C 469.791,170.404 468.791,170.737 467.5,170.5C 466.417,170.461 465.417,170.127 464.5,169.5C 463.818,170.243 463.151,170.909 462.5,171.5C 462.672,170.508 462.338,169.842 461.5,169.5C 462.145,168.188 463.145,167.188 464.5,166.5C 467.047,166.771 469.047,167.771 470.5,169.5 Z"/></g>
<g><path style="opacity:1" fill="#8babd1" d="M 236.5,167.5 C 236.833,167.5 237.167,167.5 237.5,167.5C 238.568,168.434 239.901,168.768 241.5,168.5C 238.298,171.204 235.798,174.538 234,178.5C 233.748,176.069 234.248,173.735 235.5,171.5C 234.575,170.438 233.575,170.438 232.5,171.5C 232.833,169.167 234.167,167.833 236.5,167.5 Z"/></g>
<g><path style="opacity:1" fill="#a95919" d="M 257.5,191.5 C 260.15,195.77 260.15,200.103 257.5,204.5C 254.914,205.48 252.247,205.813 249.5,205.5C 250.504,204.317 251.338,202.984 252,201.5C 254.277,190.408 252.11,180.408 245.5,171.5C 245.167,170.833 244.833,170.167 244.5,169.5C 243.713,167.896 242.38,167.229 240.5,167.5C 240.38,165.801 240.046,164.135 239.5,162.5C 240.277,160.553 241.277,158.72 242.5,157C 240.392,154.951 239.226,152.451 239,149.5C 236.168,148.214 233.335,148.214 230.5,149.5C 230.263,141.929 233.93,139.096 241.5,141C 242.805,143.148 244.638,144.648 247,145.5C 247.654,150.274 247.154,154.94 245.5,159.5C 248.765,162.262 251.932,165.262 255,168.5C 258.818,175.777 259.652,183.444 257.5,191.5 Z"/></g>
<g><path style="opacity:1" fill="#f0f3fa" d="M 578.5,275.5 C 566.648,270.874 554.315,269.207 541.5,270.5C 541.802,267.941 541.468,265.607 540.5,263.5C 537.427,231.841 534.427,200.174 531.5,168.5C 531.833,168.5 532.167,168.5 532.5,168.5C 536.412,167.007 536.079,166.34 531.5,166.5C 533.028,131.492 534.695,96.4925 536.5,61.5C 521.5,61.5 506.5,61.5 491.5,61.5C 490.527,63.9479 490.194,66.6146 490.5,69.5C 434.167,69.5 377.833,69.5 321.5,69.5C 321.5,66.8333 321.5,64.1667 321.5,61.5C 306.167,61.5 290.833,61.5 275.5,61.5C 278.439,60.2146 281.105,58.3812 283.5,56C 322.017,41.4535 361.684,31.1202 402.5,25C 446.018,18.6532 484.684,29.1532 518.5,56.5C 519.386,57.325 519.719,58.325 519.5,59.5C 525.455,60.3635 531.455,60.6968 537.5,60.5C 538.217,66.8572 538.551,73.1905 538.5,79.5C 539.675,79.281 540.675,79.6143 541.5,80.5C 579.798,128.754 596.965,183.754 593,245.5C 591.943,251.004 590.277,256.338 588,261.5C 585.061,266.397 581.894,271.064 578.5,275.5 Z"/></g>
<g><path style="opacity:1" fill="#165a8e" d="M 532.5,168.5 C 532.167,168.5 531.833,168.5 531.5,168.5C 523.454,171.529 515.454,174.529 507.5,177.5C 507.244,175.208 507.577,173.041 508.5,171C 516.544,168.703 524.544,167.869 532.5,168.5 Z"/></g>
<g><path style="opacity:1" fill="#f6b583" d="M 124.5,163.5 C 125.156,164.622 125.489,165.955 125.5,167.5C 125.494,174.879 122.494,180.212 116.5,183.5C 115.081,184.451 113.415,184.784 111.5,184.5C 111.5,183.5 111.5,182.5 111.5,181.5C 112.775,178.604 112.775,175.604 111.5,172.5C 112.85,169.894 114.35,169.894 116,172.5C 115.695,170.557 115.695,168.557 116,166.5C 118.667,165.167 121.333,165.167 124,166.5C 124.483,165.552 124.649,164.552 124.5,163.5 Z"/></g>
<g><path style="opacity:1" fill="#0e5489" d="M 279.5,168.5 C 279.917,167.876 280.584,167.543 281.5,167.5C 288.788,168.874 296.121,169.874 303.5,170.5C 303.808,172.924 303.474,175.257 302.5,177.5C 295.141,174.485 287.808,171.485 280.5,168.5C 280.167,168.5 279.833,168.5 279.5,168.5 Z"/></g>
<g><path style="opacity:1" fill="#683710" d="M 388.5,176.5 C 386.533,176.261 384.699,176.594 383,177.5C 382.975,180.917 382.808,184.25 382.5,187.5C 381.738,186.372 381.071,185.205 380.5,184C 377.909,183.699 377.075,184.866 378,187.5C 380.428,189.205 380.928,191.205 379.5,193.5C 378.448,193.649 377.448,193.483 376.5,193C 372.572,189.312 370.072,184.812 369,179.5C 368.279,175.946 369.446,173.28 372.5,171.5C 377.172,170.893 381.839,170.227 386.5,169.5C 387.086,169.709 387.586,170.043 388,170.5C 388.495,172.473 388.662,174.473 388.5,176.5 Z"/></g>
<g><path style="opacity:1" fill="#f6b482" d="M 388.5,176.5 C 389.167,178.167 389.833,179.833 390.5,181.5C 390.854,185.637 390.354,189.637 389,193.5C 387.301,194.406 385.467,194.739 383.5,194.5C 383.5,195.5 383.5,196.5 383.5,197.5C 383.179,199.048 382.179,199.715 380.5,199.5C 379.833,199.5 379.5,199.167 379.5,198.5C 379.5,196.833 379.5,195.167 379.5,193.5C 380.928,191.205 380.428,189.205 378,187.5C 377.075,184.866 377.909,183.699 380.5,184C 381.071,185.205 381.738,186.372 382.5,187.5C 382.808,184.25 382.975,180.917 383,177.5C 384.699,176.594 386.533,176.261 388.5,176.5 Z"/></g>
<g><path style="opacity:1" fill="#c69871" d="M 93.5,181.5 C 98.8333,181.5 104.167,181.5 109.5,181.5C 108.752,183.332 107.752,184.999 106.5,186.5C 103.645,188.701 102.311,191.701 102.5,195.5C 103.005,200.212 103.672,204.879 104.5,209.5C 104.153,215.047 104.82,220.38 106.5,225.5C 106.56,228.155 105.893,230.489 104.5,232.5C 101.21,215.383 97.5437,198.383 93.5,181.5 Z"/></g>
<g><path style="opacity:1" fill="#b59e91" d="M 139.5,184.5 C 139.5,184.833 139.5,185.167 139.5,185.5C 138.833,185.5 138.167,185.5 137.5,185.5C 132.5,185.5 127.5,185.5 122.5,185.5C 122.5,186.833 122.5,188.167 122.5,189.5C 122.167,189.5 121.833,189.5 121.5,189.5C 121.5,187.833 121.5,186.167 121.5,184.5C 127.5,184.5 133.5,184.5 139.5,184.5 Z"/></g>
<g><path style="opacity:1" fill="#f6fafa" d="M 475.5,174.5 C 477.262,174.357 478.929,174.691 480.5,175.5C 481.614,178.156 481.614,180.823 480.5,183.5C 477.736,194.196 472.069,203.029 463.5,210C 460.881,209.917 458.214,209.75 455.5,209.5C 455.583,205.824 456.583,202.491 458.5,199.5C 463.144,192.894 467.311,185.894 471,178.5C 472.371,176.959 473.871,175.625 475.5,174.5 Z"/></g>
<g><path style="opacity:1" fill="#f883e7" d="M 191.5,186.5 C 191.657,187.873 191.49,189.207 191,190.5C 188.247,188.929 185.414,188.596 182.5,189.5C 180.517,189.185 179.184,188.185 178.5,186.5C 182.678,185.429 187.011,185.429 191.5,186.5 Z"/></g>
<g><path style="opacity:1" fill="#0f548a" d="M 474.5,167.5 C 478.64,169.902 478.973,172.236 475.5,174.5C 473.871,175.625 472.371,176.959 471,178.5C 467.311,185.894 463.144,192.894 458.5,199.5C 456.167,199.5 453.833,199.5 451.5,199.5C 451.5,198.167 451.5,196.833 451.5,195.5C 451.687,191.087 452.354,186.754 453.5,182.5C 455.429,177.628 458.095,173.295 461.5,169.5C 462.338,169.842 462.672,170.508 462.5,171.5C 461.996,175.507 461.83,179.507 462,183.5C 463.297,178.91 465.13,174.577 467.5,170.5C 468.791,170.737 469.791,170.404 470.5,169.5C 471.833,168.833 473.167,168.167 474.5,167.5 Z"/></g>
<g><path style="opacity:1" fill="#c8ddeb" d="M 467.5,170.5 C 465.13,174.577 463.297,178.91 462,183.5C 461.83,179.507 461.996,175.507 462.5,171.5C 463.151,170.909 463.818,170.243 464.5,169.5C 465.417,170.127 466.417,170.461 467.5,170.5 Z"/></g>
<g><path style="opacity:1" fill="#f3abeb" d="M 178.5,186.5 C 179.184,188.185 180.517,189.185 182.5,189.5C 185.414,188.596 188.247,188.929 191,190.5C 191.49,189.207 191.657,187.873 191.5,186.5C 194.363,189.148 193.863,191.148 190,192.5C 186.206,191.77 182.373,191.27 178.5,191C 176.019,189.196 176.019,187.696 178.5,186.5 Z"/></g>
<g><path style="opacity:1" fill="#603814" d="M 137.5,185.5 C 138.416,197.469 138.749,209.469 138.5,221.5C 137.5,221.5 136.5,221.5 135.5,221.5C 132.5,221.5 129.5,221.5 126.5,221.5C 126.666,216.156 126.499,210.823 126,205.5C 125.802,203.618 125.302,201.952 124.5,200.5C 123.833,196.833 123.167,193.167 122.5,189.5C 122.5,188.167 122.5,186.833 122.5,185.5C 127.5,185.5 132.5,185.5 137.5,185.5 Z"/></g>
<g><path style="opacity:1" fill="#0a548b" d="M 241.5,168.5 C 242.391,169.11 243.391,169.443 244.5,169.5C 244.833,170.167 245.167,170.833 245.5,171.5C 243.069,172.607 242.069,174.607 242.5,177.5C 243.251,182.921 244.251,188.254 245.5,193.5C 244.545,195.746 243.878,198.079 243.5,200.5C 239.817,204.18 235.817,207.514 231.5,210.5C 230.833,210.833 230.167,211.167 229.5,211.5C 227.486,211.392 225.82,212.058 224.5,213.5C 225.518,202.172 225.685,190.839 225,179.5C 227.338,176.662 229.838,173.996 232.5,171.5C 233.575,170.438 234.575,170.438 235.5,171.5C 234.248,173.735 233.748,176.069 234,178.5C 235.798,174.538 238.298,171.204 241.5,168.5 Z"/></g>
<g><path style="opacity:1" fill="#f5b183" d="M 434.5,201.5 C 429.925,202.657 427.258,200.99 426.5,196.5C 429.106,195.348 431.773,195.182 434.5,196C 435.752,197.828 435.752,199.661 434.5,201.5 Z"/></g>
<g><path style="opacity:1" fill="#906642" d="M 245.5,193.5 C 246.468,195.607 246.802,197.941 246.5,200.5C 245.5,200.5 244.5,200.5 243.5,200.5C 243.878,198.079 244.545,195.746 245.5,193.5 Z"/></g>
<g><path style="opacity:1" fill="#c9986f" d="M 261.5,183.5 C 267.5,183.5 273.5,183.5 279.5,183.5C 276.165,199.848 272.832,216.181 269.5,232.5C 268.964,218.75 266.297,205.416 261.5,192.5C 261.872,189.617 261.872,186.617 261.5,183.5 Z"/></g>
<g><path style="opacity:1" fill="#817061" d="M 148.5,181.5 C 148.56,180.957 148.893,180.624 149.5,180.5C 150.499,191.814 150.832,203.147 150.5,214.5C 150.768,216.099 150.434,217.432 149.5,218.5C 149.829,205.989 149.495,193.655 148.5,181.5 Z"/></g>
<g><path style="opacity:1" fill="#f3b27e" d="M 518.5,213.5 C 516.265,213.795 514.265,213.461 512.5,212.5C 512.5,210.833 512.5,209.167 512.5,207.5C 509.675,207.838 507.508,206.838 506,204.5C 505.502,201.518 505.335,198.518 505.5,195.5C 505.461,194.244 505.961,193.244 507,192.5C 509.571,194.353 512.238,196.019 515,197.5C 514.827,203.232 515.993,208.565 518.5,213.5 Z"/></g>
<g><path style="opacity:1" fill="#906644" d="M 137.5,185.5 C 138.167,185.5 138.833,185.5 139.5,185.5C 139.275,197.526 139.608,209.526 140.5,221.5C 139.081,222.451 137.415,222.784 135.5,222.5C 135.5,222.167 135.5,221.833 135.5,221.5C 136.5,221.5 137.5,221.5 138.5,221.5C 138.749,209.469 138.416,197.469 137.5,185.5 Z"/></g>
<g><path style="opacity:1" fill="#38d882" d="M 187.5,201.5 C 186.539,203.265 186.205,205.265 186.5,207.5C 185.5,207.5 184.5,207.5 183.5,207.5C 183.5,206.5 183.5,205.5 183.5,204.5C 182.732,199.779 183.899,195.779 187,192.5C 187.498,195.482 187.665,198.482 187.5,201.5 Z"/></g>
<g><path style="opacity:1" fill="#f3d7c3" d="M 196.5,205.5 C 196.804,204.85 197.137,204.183 197.5,203.5C 195.604,202.534 193.604,202.201 191.5,202.5C 191.5,203.5 191.5,204.5 191.5,205.5C 192.833,205.5 194.167,205.5 195.5,205.5C 190.684,207.581 188.351,205.914 188.5,200.5C 191.579,200.26 194.579,200.593 197.5,201.5C 197.833,202.167 198.167,202.833 198.5,203.5C 198.253,204.713 197.586,205.38 196.5,205.5 Z"/></g>
<g><path style="opacity:1" fill="#fbb980" d="M 196.5,205.5 C 196.167,205.5 195.833,205.5 195.5,205.5C 194.167,205.5 192.833,205.5 191.5,205.5C 191.5,204.5 191.5,203.5 191.5,202.5C 193.604,202.201 195.604,202.534 197.5,203.5C 197.137,204.183 196.804,204.85 196.5,205.5 Z"/></g>
<g><path style="opacity:1" fill="#2373b6" d="M 451.5,195.5 C 451.5,196.833 451.5,198.167 451.5,199.5C 453.833,199.5 456.167,199.5 458.5,199.5C 456.583,202.491 455.583,205.824 455.5,209.5C 455.423,210.75 454.756,211.583 453.5,212C 454.435,214.381 454.768,216.881 454.5,219.5C 452.5,219.167 450.5,218.833 448.5,218.5C 448.5,221.167 448.5,223.833 448.5,226.5C 447.527,224.052 447.194,221.385 447.5,218.5C 445.833,218.5 444.167,218.5 442.5,218.5C 441.432,217.566 440.099,217.232 438.5,217.5C 438.5,216.833 438.5,216.167 438.5,215.5C 440.912,215.331 443.079,215.997 445,217.5C 448.809,216.235 449.309,214.235 446.5,211.5C 444.271,210.423 441.937,209.756 439.5,209.5C 439.401,206.763 439.735,204.096 440.5,201.5C 440.5,200.833 440.5,200.167 440.5,199.5C 443.833,199.5 447.167,199.5 450.5,199.5C 450.232,197.901 450.566,196.568 451.5,195.5 Z"/></g>
<g><path style="opacity:1" fill="#155488" d="M 480.5,183.5 C 481.167,183.5 481.5,183.833 481.5,184.5C 481.412,200.199 480.745,215.865 479.5,231.5C 479.167,231.5 478.833,231.5 478.5,231.5C 474.833,231.5 471.167,231.5 467.5,231.5C 465.901,231.768 464.568,231.434 463.5,230.5C 461.393,229.532 459.059,229.198 456.5,229.5C 456.5,231.5 456.5,233.5 456.5,235.5C 456.167,235.5 455.833,235.5 455.5,235.5C 455.5,233.833 455.5,232.167 455.5,230.5C 454.5,230.5 453.5,230.5 452.5,230.5C 452.784,232.415 452.451,234.081 451.5,235.5C 451.167,235.5 450.833,235.5 450.5,235.5C 450.16,232.856 450.827,230.523 452.5,228.5C 451.234,227.638 449.901,226.971 448.5,226.5C 448.5,223.833 448.5,221.167 448.5,218.5C 450.5,218.833 452.5,219.167 454.5,219.5C 454.768,216.881 454.435,214.381 453.5,212C 454.756,211.583 455.423,210.75 455.5,209.5C 458.214,209.75 460.881,209.917 463.5,210C 472.069,203.029 477.736,194.196 480.5,183.5 Z"/></g>
<g><path style="opacity:1" fill="#4e4735" d="M 124.5,200.5 C 125.302,201.952 125.802,203.618 126,205.5C 126.499,210.823 126.666,216.156 126.5,221.5C 129.5,221.5 132.5,221.5 135.5,221.5C 135.5,221.833 135.5,222.167 135.5,222.5C 132.167,222.5 128.833,222.5 125.5,222.5C 125.521,215.146 125.187,207.813 124.5,200.5 Z"/></g>
<g><path style="opacity:1" fill="#053f64" d="M 379.5,198.5 C 379.5,199.167 379.833,199.5 380.5,199.5C 384.326,209.792 385.993,220.458 385.5,231.5C 382.904,230.735 380.237,230.401 377.5,230.5C 377.666,222.826 377.5,215.159 377,207.5C 376.196,204.854 374.696,202.854 372.5,201.5C 373.976,199.5 375.809,197.833 378,196.5C 378.278,197.416 378.778,198.082 379.5,198.5 Z"/></g>
<g><path style="opacity:1" fill="#613b19" d="M 148.5,181.5 C 149.495,193.655 149.829,205.989 149.5,218.5C 147.597,218.796 145.93,219.463 144.5,220.5C 143.167,220.833 141.833,221.167 140.5,221.5C 139.608,209.526 139.275,197.526 139.5,185.5C 139.5,185.167 139.5,184.833 139.5,184.5C 142.574,183.698 145.574,182.698 148.5,181.5 Z"/></g>
<g><path style="opacity:1" fill="#30599b" d="M 372.5,201.5 C 374.696,202.854 376.196,204.854 377,207.5C 377.5,215.159 377.666,222.826 377.5,230.5C 380.237,230.401 382.904,230.735 385.5,231.5C 387.948,232.473 390.615,232.806 393.5,232.5C 393.5,231.167 393.5,229.833 393.5,228.5C 394.238,230.663 395.238,232.83 396.5,235C 396.164,236.03 395.497,236.53 394.5,236.5C 391.482,236.704 388.482,237.037 385.5,237.5C 380.125,237.828 374.792,237.495 369.5,236.5C 368.972,234.664 368.306,232.997 367.5,231.5C 366.92,227.19 366.586,222.857 366.5,218.5C 366.305,214.085 366.805,209.751 368,205.5C 368.792,203.356 370.292,202.023 372.5,201.5 Z"/></g>
<g><path style="opacity:1" fill="#edf1f8" d="M 503.5,163.5 C 504.222,163.918 504.722,164.584 505,165.5C 504.919,173.102 505.753,180.436 507.5,187.5C 504.66,189.715 503.993,192.382 505.5,195.5C 505.335,198.518 505.502,201.518 506,204.5C 507.508,206.838 509.675,207.838 512.5,207.5C 512.5,209.167 512.5,210.833 512.5,212.5C 511.849,211.909 511.182,211.243 510.5,210.5C 507.521,215.145 503.854,219.145 499.5,222.5C 498.526,224.743 498.192,227.076 498.5,229.5C 492.455,231.393 486.121,232.06 479.5,231.5C 480.745,215.865 481.412,200.199 481.5,184.5C 483.673,182.717 485.84,180.717 488,178.5C 488.483,177.552 488.649,176.552 488.5,175.5C 492.353,174.651 494.853,172.317 496,168.5C 496.333,168.833 496.667,169.167 497,169.5C 498.535,166.706 500.702,164.706 503.5,163.5 Z"/></g>
<g><path style="opacity:1" fill="#2cbcdf" d="M 187.5,201.5 C 187.325,203.621 187.659,205.621 188.5,207.5C 187.032,208.806 185.699,210.306 184.5,212C 182.658,211.932 180.991,212.099 179.5,212.5C 179.433,211.041 179.766,209.708 180.5,208.5C 181.857,207.41 182.857,206.076 183.5,204.5C 183.5,205.5 183.5,206.5 183.5,207.5C 184.5,207.5 185.5,207.5 186.5,207.5C 186.205,205.265 186.539,203.265 187.5,201.5 Z"/></g>
<g><path style="opacity:1" fill="#0c7dc8" d="M 106.5,186.5 C 108.903,186.393 110.736,187.393 112,189.5C 113.014,193.225 114.181,196.892 115.5,200.5C 117.813,197.563 119.146,194.23 119.5,190.5C 120.5,190.5 121.5,190.5 122.5,190.5C 121.865,197.181 121.031,203.848 120,210.5C 115.738,224.414 110.904,224.747 105.5,211.5C 105.672,210.508 105.338,209.842 104.5,209.5C 103.672,204.879 103.005,200.212 102.5,195.5C 102.311,191.701 103.645,188.701 106.5,186.5 Z"/></g>
<g><path style="opacity:1" fill="#dee6f2" d="M 434.5,201.5 C 436.612,202.275 438.612,202.275 440.5,201.5C 439.735,204.096 439.401,206.763 439.5,209.5C 434.825,208.339 432.159,210.006 431.5,214.5C 433.806,214.993 436.139,215.326 438.5,215.5C 438.5,216.167 438.5,216.833 438.5,217.5C 437.515,221.634 437.182,225.968 437.5,230.5C 435.937,231.945 434.604,233.611 433.5,235.5C 432.298,234.595 430.964,234.595 429.5,235.5C 429.5,233.833 429.5,232.167 429.5,230.5C 427.833,230.5 426.167,230.5 424.5,230.5C 424.5,232.167 424.5,233.833 424.5,235.5C 424.167,235.5 423.833,235.5 423.5,235.5C 423.762,234.022 423.429,232.689 422.5,231.5C 421.614,232.325 421.281,233.325 421.5,234.5C 421.167,234.5 420.833,234.5 420.5,234.5C 420.209,233.351 419.376,232.684 418,232.5C 412.722,231.815 407.555,230.648 402.5,229C 401.441,225.312 400.107,221.812 398.5,218.5C 397.733,214.302 396.399,210.302 394.5,206.5C 395.583,206.461 396.583,206.127 397.5,205.5C 401.317,207.353 405.317,208.686 409.5,209.5C 409.917,212.079 409.25,214.246 407.5,216C 409.578,218.134 411.412,217.968 413,215.5C 414.375,217.376 415.542,219.376 416.5,221.5C 419.886,218.117 422.886,214.451 425.5,210.5C 427.583,209.041 429.75,207.708 432,206.5C 432.366,204.548 433.199,202.882 434.5,201.5 Z"/></g>
<g><path style="opacity:1" fill="#d2e2e9" d="M 231.5,210.5 C 234.218,212.423 233.884,213.756 230.5,214.5C 230.443,213.391 230.11,212.391 229.5,211.5C 230.167,211.167 230.833,210.833 231.5,210.5 Z"/></g>
<g><path style="opacity:1" fill="#4ec6f2" d="M 383.5,197.5 C 384.609,197.557 385.609,197.89 386.5,198.5C 390.717,208.035 393.05,218.035 393.5,228.5C 393.5,229.833 393.5,231.167 393.5,232.5C 390.615,232.806 387.948,232.473 385.5,231.5C 385.993,220.458 384.326,209.792 380.5,199.5C 382.179,199.715 383.179,199.048 383.5,197.5 Z"/></g>
<g><path style="opacity:1" fill="#f095ea" d="M 439.5,209.5 C 441.937,209.756 444.271,210.423 446.5,211.5C 449.309,214.235 448.809,216.235 445,217.5C 443.079,215.997 440.912,215.331 438.5,215.5C 436.139,215.326 433.806,214.993 431.5,214.5C 432.159,210.006 434.825,208.339 439.5,209.5 Z"/></g>
<g><path style="opacity:1" fill="#35a0ea" d="M 188.5,207.5 C 190.223,209.78 190.889,212.447 190.5,215.5C 185.376,219.969 181.709,218.969 179.5,212.5C 180.991,212.099 182.658,211.932 184.5,212C 185.699,210.306 187.032,208.806 188.5,207.5 Z"/></g>
<g><path style="opacity:1" fill="#d3ab8f" d="M 229.5,211.5 C 230.11,212.391 230.443,213.391 230.5,214.5C 229.833,214.5 229.5,214.833 229.5,215.5C 227.955,217.805 225.955,218.138 223.5,216.5C 223.263,215.209 223.596,214.209 224.5,213.5C 225.82,212.058 227.486,211.392 229.5,211.5 Z"/></g>
<g><path style="opacity:1" fill="#f2f2f2" d="M 245.5,171.5 C 252.11,180.408 254.277,190.408 252,201.5C 251.338,202.984 250.504,204.317 249.5,205.5C 251.265,206.461 253.265,206.795 255.5,206.5C 253.401,217.496 251.234,228.496 249,239.5C 248.827,233.984 248.327,228.651 247.5,223.5C 247.5,223.167 247.5,222.833 247.5,222.5C 248.404,221.791 248.737,220.791 248.5,219.5C 249.552,219.649 250.552,219.483 251.5,219C 248.665,213.161 246.998,206.995 246.5,200.5C 246.802,197.941 246.468,195.607 245.5,193.5C 244.251,188.254 243.251,182.921 242.5,177.5C 242.069,174.607 243.069,172.607 245.5,171.5 Z"/></g>
<g><path style="opacity:1" fill="#692c36" d="M 528.5,209.5 C 529.939,210.988 530.605,212.822 530.5,215C 529.905,218.341 528.905,221.507 527.5,224.5C 527.34,226.355 528.007,227.688 529.5,228.5C 529.5,229.5 529.5,230.5 529.5,231.5C 529.706,234.495 529.04,237.162 527.5,239.5C 527.5,238.833 527.5,238.167 527.5,237.5C 526.817,235.824 525.483,235.157 523.5,235.5C 520.808,234.47 519.308,232.47 519,229.5C 518.501,225.514 518.334,221.514 518.5,217.5C 518.5,216.167 518.5,214.833 518.5,213.5C 515.993,208.565 514.827,203.232 515,197.5C 512.238,196.019 509.571,194.353 507,192.5C 505.961,193.244 505.461,194.244 505.5,195.5C 503.993,192.382 504.66,189.715 507.5,187.5C 522.54,185.383 528.707,192.05 526,207.5C 526.708,208.381 527.542,209.047 528.5,209.5 Z"/></g>
<g><path style="opacity:1" fill="#b27b5d" d="M 528.5,209.5 C 529.833,209.5 531.167,209.5 532.5,209.5C 531.628,215.858 530.628,222.191 529.5,228.5C 528.007,227.688 527.34,226.355 527.5,224.5C 528.905,221.507 529.905,218.341 530.5,215C 530.605,212.822 529.939,210.988 528.5,209.5 Z"/></g>
<g><path style="opacity:1" fill="#1f6fb1" d="M 243.5,200.5 C 244.5,200.5 245.5,200.5 246.5,200.5C 246.998,206.995 248.665,213.161 251.5,219C 250.552,219.483 249.552,219.649 248.5,219.5C 248.737,220.791 248.404,221.791 247.5,222.5C 243.519,223.021 239.519,223.354 235.5,223.5C 235.5,223.167 235.5,222.833 235.5,222.5C 235.423,221.25 234.756,220.417 233.5,220C 234.576,218.274 234.743,216.441 234,214.5C 232.644,215.38 231.144,215.714 229.5,215.5C 229.5,214.833 229.833,214.5 230.5,214.5C 233.884,213.756 234.218,212.423 231.5,210.5C 235.817,207.514 239.817,204.18 243.5,200.5 Z"/></g>
<g><path style="opacity:1" fill="#0d4062" d="M 386.5,198.5 C 389.527,200.86 392.194,203.527 394.5,206.5C 396.399,210.302 397.733,214.302 398.5,218.5C 398.647,223.398 399.647,228.065 401.5,232.5C 400.167,232.5 398.833,232.5 397.5,232.5C 397.366,234.292 397.699,235.958 398.5,237.5C 397.791,238.404 396.791,238.737 395.5,238.5C 394.662,238.158 394.328,237.492 394.5,236.5C 395.497,236.53 396.164,236.03 396.5,235C 395.238,232.83 394.238,230.663 393.5,228.5C 393.05,218.035 390.717,208.035 386.5,198.5 Z"/></g>
<g><path style="opacity:1" fill="#52c6f1" d="M 109.5,181.5 C 110.167,181.5 110.833,181.5 111.5,181.5C 111.5,182.5 111.5,183.5 111.5,184.5C 113.415,184.784 115.081,184.451 116.5,183.5C 117.688,182.316 118.855,182.316 120,183.5C 120.191,185.708 120.691,187.708 121.5,189.5C 121.833,189.5 122.167,189.5 122.5,189.5C 123.167,193.167 123.833,196.833 124.5,200.5C 125.187,207.813 125.521,215.146 125.5,222.5C 128.833,222.5 132.167,222.5 135.5,222.5C 136.091,223.151 136.757,223.818 137.5,224.5C 137.376,225.107 137.043,225.44 136.5,225.5C 126.002,225.914 117.668,230.247 111.5,238.5C 108.578,229.715 106.578,220.715 105.5,211.5C 110.904,224.747 115.738,224.414 120,210.5C 121.031,203.848 121.865,197.181 122.5,190.5C 121.5,190.5 120.5,190.5 119.5,190.5C 119.146,194.23 117.813,197.563 115.5,200.5C 114.181,196.892 113.014,193.225 112,189.5C 110.736,187.393 108.903,186.393 106.5,186.5C 107.752,184.999 108.752,183.332 109.5,181.5 Z"/></g>
<g><path style="opacity:1" fill="#15558a" d="M 235.5,222.5 C 231.6,221.57 227.6,221.237 223.5,221.5C 223.5,220.5 223.5,219.5 223.5,218.5C 223.5,217.833 223.5,217.167 223.5,216.5C 225.955,218.138 227.955,217.805 229.5,215.5C 231.144,215.714 232.644,215.38 234,214.5C 234.743,216.441 234.576,218.274 233.5,220C 234.756,220.417 235.423,221.25 235.5,222.5 Z"/></g>
<g><path style="opacity:1" fill="#514c5b" d="M 222.5,218.5 C 222.833,218.5 223.167,218.5 223.5,218.5C 223.5,219.5 223.5,220.5 223.5,221.5C 227.6,221.237 231.6,221.57 235.5,222.5C 235.5,222.833 235.5,223.167 235.5,223.5C 233.5,223.5 231.5,223.5 229.5,223.5C 227.5,223.5 225.5,223.5 223.5,223.5C 222.699,221.958 222.366,220.292 222.5,218.5 Z"/></g>
<g><path style="opacity:1" fill="#fcfdfd" d="M 144.5,220.5 C 149.24,222.015 154.24,223.348 159.5,224.5C 163.5,224.833 167.5,225.167 171.5,225.5C 188.833,224.753 206.166,224.087 223.5,223.5C 221.326,234.717 219.993,246.051 219.5,257.5C 220.029,270.26 221.362,282.926 223.5,295.5C 223.5,296.5 223.5,297.5 223.5,298.5C 213.499,299.083 203.499,299.75 193.5,300.5C 191.048,300.461 189.048,299.794 187.5,298.5C 186.455,276.113 184.955,253.779 183,231.5C 180.787,253.507 178.287,275.507 175.5,297.5C 173.257,298.812 170.59,299.478 167.5,299.5C 161.442,299.326 155.442,298.659 149.5,297.5C 148.287,297.253 147.62,296.586 147.5,295.5C 148.821,276.836 149.155,258.169 148.5,239.5C 145.171,257.463 142.004,275.463 139,293.5C 137.989,294.337 136.822,294.67 135.5,294.5C 131.289,293.612 127.289,292.112 123.5,290C 124.167,289.667 124.833,289.333 125.5,289C 124.565,286.619 124.232,284.119 124.5,281.5C 125.627,276.531 126.627,271.531 127.5,266.5C 129.151,261.676 129.817,256.676 129.5,251.5C 131.397,249.731 132.564,247.398 133,244.5C 134.362,238.19 135.529,231.857 136.5,225.5C 137.043,225.44 137.376,225.107 137.5,224.5C 136.757,223.818 136.091,223.151 135.5,222.5C 137.415,222.784 139.081,222.451 140.5,221.5C 141.833,221.167 143.167,220.833 144.5,220.5 Z"/></g>
<g><path style="opacity:1" fill="#5c3d24" d="M 529.5,231.5 C 529.5,230.5 529.5,229.5 529.5,228.5C 530.628,222.191 531.628,215.858 532.5,209.5C 533.117,209.389 533.617,209.056 534,208.5C 533.45,216.417 531.95,224.084 529.5,231.5 Z"/></g>
<g><path style="opacity:1" fill="#e1f7fa" d="M 180.5,208.5 C 179.766,209.708 179.433,211.041 179.5,212.5C 181.709,218.969 185.376,219.969 190.5,215.5C 192.104,214.713 192.771,213.38 192.5,211.5C 197.636,211.433 202.636,212.1 207.5,213.5C 207.71,219.966 208.377,219.966 209.5,213.5C 212.744,213.729 215.744,214.729 218.5,216.5C 220.765,214.933 222.099,215.6 222.5,218.5C 222.366,220.292 222.699,221.958 223.5,223.5C 206.166,224.087 188.833,224.753 171.5,225.5C 167.5,225.167 163.5,224.833 159.5,224.5C 154.24,223.348 149.24,222.015 144.5,220.5C 145.93,219.463 147.597,218.796 149.5,218.5C 150.434,217.432 150.768,216.099 150.5,214.5C 157.323,212.924 163.989,213.257 170.5,215.5C 170.082,216.222 169.416,216.722 168.5,217C 161.87,216.825 155.537,217.992 149.5,220.5C 150.667,220.833 151.833,221.167 153,221.5C 160.621,221.032 168.121,220.032 175.5,218.5C 175.5,217.5 175.5,216.5 175.5,215.5C 174.5,215.5 173.5,215.5 172.5,215.5C 173.209,214.596 174.209,214.263 175.5,214.5C 175.596,210.689 176.262,210.689 177.5,214.5C 177.964,212.025 178.964,210.025 180.5,208.5 Z"/></g>
<g><path style="opacity:1" fill="#77c9de" d="M 170.5,215.5 C 171.167,215.5 171.833,215.5 172.5,215.5C 173.5,215.5 174.5,215.5 175.5,215.5C 175.5,216.5 175.5,217.5 175.5,218.5C 168.121,220.032 160.621,221.032 153,221.5C 151.833,221.167 150.667,220.833 149.5,220.5C 155.537,217.992 161.87,216.825 168.5,217C 169.416,216.722 170.082,216.222 170.5,215.5 Z"/></g>
<g><path style="opacity:1" fill="#64b2e3" d="M 193.5,212.5 C 195.167,212.5 196.833,212.5 198.5,212.5C 198.5,215.167 198.5,217.833 198.5,220.5C 196.833,220.5 195.167,220.5 193.5,220.5C 193.5,217.833 193.5,215.167 193.5,212.5 Z"/></g>
<g><path style="opacity:1" fill="#3cd779" d="M 441.5,220.5 C 441.5,222.833 441.5,225.167 441.5,227.5C 440.5,227.5 439.5,227.5 438.5,227.5C 438.5,224.5 438.5,221.5 438.5,218.5C 440.179,218.285 441.179,218.952 441.5,220.5 Z"/></g>
<g><path style="opacity:1" fill="#55caf3" d="M 512.5,212.5 C 514.265,213.461 516.265,213.795 518.5,213.5C 518.5,214.833 518.5,216.167 518.5,217.5C 517.671,224.655 517.171,231.989 517,239.5C 516.027,241.392 515.36,243.392 515,245.5C 510.266,251.736 504.766,257.069 498.5,261.5C 497.5,261.5 496.5,261.5 495.5,261.5C 495.5,262.833 495.5,264.167 495.5,265.5C 497.933,265.727 499.599,264.727 500.5,262.5C 504.5,260.167 508.5,257.833 512.5,255.5C 515.939,269.088 510.606,275.088 496.5,273.5C 495.059,268.326 493.726,262.993 492.5,257.5C 494.743,254.074 497.243,250.741 500,247.5C 501.551,242.046 501.718,236.712 500.5,231.5C 500.167,230.5 499.5,229.833 498.5,229.5C 498.192,227.076 498.526,224.743 499.5,222.5C 503.854,219.145 507.521,215.145 510.5,210.5C 511.182,211.243 511.849,211.909 512.5,212.5 Z"/></g>
<g><path style="opacity:1" fill="#c99971" d="M 364.5,213.5 C 361.227,213.471 360.56,214.804 362.5,217.5C 360.112,230.366 357.445,243.032 354.5,255.5C 351.928,240.305 348.595,225.305 344.5,210.5C 343.702,210.957 343.369,211.624 343.5,212.5C 342.596,211.791 342.263,210.791 342.5,209.5C 349.833,209.5 357.167,209.5 364.5,209.5C 364.5,210.833 364.5,212.167 364.5,213.5 Z"/></g>
<g><path style="opacity:1" fill="#664325" d="M 93.5,181.5 C 97.5437,198.383 101.21,215.383 104.5,232.5C 105.839,236.354 106.672,240.354 107,244.5C 107.833,245.333 108.667,246.167 109.5,247C 112.482,247.498 115.482,247.665 118.5,247.5C 120.483,247.157 121.817,247.824 122.5,249.5C 118.833,249.5 115.167,249.5 111.5,249.5C 110.5,256.833 109.5,264.167 108.5,271.5C 107.083,277.354 105.749,283.354 104.5,289.5C 103.846,282.753 104.513,276.086 106.5,269.5C 107.229,263.627 108.229,257.794 109.5,252C 109.419,249.443 108.253,247.61 106,246.5C 101.373,225.7 96.8732,204.866 92.5,184C 92.528,182.93 92.8614,182.097 93.5,181.5 Z"/></g>
<g><path style="opacity:1" fill="#b34426" d="M 247.5,222.5 C 247.5,222.833 247.5,223.167 247.5,223.5C 247.5,231.833 247.5,240.167 247.5,248.5C 247.5,249.167 247.5,249.833 247.5,250.5C 246.782,257.827 247.782,264.827 250.5,271.5C 252.498,280.147 254.498,288.814 256.5,297.5C 256.457,298.416 256.124,299.083 255.5,299.5C 254.5,299.5 253.5,299.5 252.5,299.5C 250.806,298.473 249.473,297.139 248.5,295.5C 242.812,282.482 237.478,269.482 232.5,256.5C 231.828,245.45 230.828,234.45 229.5,223.5C 231.5,223.5 233.5,223.5 235.5,223.5C 239.519,223.354 243.519,223.021 247.5,222.5 Z"/></g>
<g><path style="opacity:1" fill="#43cea0" d="M 438.5,217.5 C 440.099,217.232 441.432,217.566 442.5,218.5C 442.672,219.492 442.338,220.158 441.5,220.5C 441.179,218.952 440.179,218.285 438.5,218.5C 438.5,221.5 438.5,224.5 438.5,227.5C 439.5,227.5 440.5,227.5 441.5,227.5C 441.5,228.833 441.5,230.167 441.5,231.5C 439.544,233.175 438.211,232.842 437.5,230.5C 437.182,225.968 437.515,221.634 438.5,217.5 Z"/></g>
<g><path style="opacity:1" fill="#395c99" d="M 398.5,218.5 C 400.107,221.812 401.441,225.312 402.5,229C 407.555,230.648 412.722,231.815 418,232.5C 419.376,232.684 420.209,233.351 420.5,234.5C 415.027,235.617 409.36,236.283 403.5,236.5C 403.771,234.62 403.104,233.287 401.5,232.5C 399.647,228.065 398.647,223.398 398.5,218.5 Z"/></g>
<g><path style="opacity:1" fill="#f1a97c" d="M 423.5,235.5 C 422.508,235.672 421.842,235.338 421.5,234.5C 421.281,233.325 421.614,232.325 422.5,231.5C 423.429,232.689 423.762,234.022 423.5,235.5 Z"/></g>
<g><path style="opacity:1" fill="#704d4e" d="M 448.5,226.5 C 449.901,226.971 451.234,227.638 452.5,228.5C 450.827,230.523 450.16,232.856 450.5,235.5C 448.612,233.012 447.945,230.012 448.5,226.5 Z"/></g>
<g><path style="opacity:1" fill="#e6b392" d="M 401.5,232.5 C 403.104,233.287 403.771,234.62 403.5,236.5C 402.081,237.451 400.415,237.784 398.5,237.5C 397.699,235.958 397.366,234.292 397.5,232.5C 398.833,232.5 400.167,232.5 401.5,232.5 Z"/></g>
<g><path style="opacity:1" fill="#bb4021" d="M 463.5,230.5 C 464.568,231.434 465.901,231.768 467.5,231.5C 470.358,232.166 473.358,232.833 476.5,233.5C 475.833,233.833 475.167,234.167 474.5,234.5C 468.909,234.79 463.242,234.79 457.5,234.5C 457.5,233.167 457.5,231.833 457.5,230.5C 459.5,230.5 461.5,230.5 463.5,230.5 Z"/></g>
<g><path style="opacity:1" fill="#b78a6a" d="M 261.5,183.5 C 261.872,186.617 261.872,189.617 261.5,192.5C 266.297,205.416 268.964,218.75 269.5,232.5C 268.565,236.435 267.731,240.435 267,244.5C 266.535,245.931 265.701,247.097 264.5,248C 258.843,248.499 253.176,248.666 247.5,248.5C 247.5,240.167 247.5,231.833 247.5,223.5C 248.327,228.651 248.827,233.984 249,239.5C 251.234,228.496 253.401,217.496 255.5,206.5C 253.265,206.795 251.265,206.461 249.5,205.5C 252.247,205.813 254.914,205.48 257.5,204.5C 260.15,200.103 260.15,195.77 257.5,191.5C 258.497,191.53 259.164,191.03 259.5,190C 259.99,187.654 260.657,185.487 261.5,183.5 Z"/></g>
<g><path style="opacity:1" fill="#c6d4e9" d="M 346.5,229.5 C 347.451,230.919 347.784,232.585 347.5,234.5C 347.5,235.5 347.5,236.5 347.5,237.5C 334.167,237.5 320.833,237.5 307.5,237.5C 306.659,235.621 306.325,233.621 306.5,231.5C 320.209,232.148 333.542,231.481 346.5,229.5 Z"/></g>
<g><path style="opacity:1" fill="#a6513a" d="M 463.5,230.5 C 461.5,230.5 459.5,230.5 457.5,230.5C 457.5,231.833 457.5,233.167 457.5,234.5C 463.242,234.79 468.909,234.79 474.5,234.5C 475.167,234.167 475.833,233.833 476.5,233.5C 473.358,232.833 470.358,232.166 467.5,231.5C 471.167,231.5 474.833,231.5 478.5,231.5C 478.5,233.5 478.5,235.5 478.5,237.5C 477.167,237.5 475.833,237.5 474.5,237.5C 473.833,237.5 473.167,237.5 472.5,237.5C 467.342,236.542 462.009,235.875 456.5,235.5C 456.5,233.5 456.5,231.5 456.5,229.5C 459.059,229.198 461.393,229.532 463.5,230.5 Z"/></g>
<g><path style="opacity:1" fill="#c8d5eb" d="M 498.5,229.5 C 499.5,229.833 500.167,230.5 500.5,231.5C 499.519,233.396 498.519,235.396 497.5,237.5C 491.112,238.79 484.778,238.79 478.5,237.5C 478.5,235.5 478.5,233.5 478.5,231.5C 478.833,231.5 479.167,231.5 479.5,231.5C 486.121,232.06 492.455,231.393 498.5,229.5 Z"/></g>
<g><path style="opacity:1" fill="#af8a6c" d="M 104.5,209.5 C 105.338,209.842 105.672,210.508 105.5,211.5C 106.578,220.715 108.578,229.715 111.5,238.5C 113.427,241.767 115.761,244.767 118.5,247.5C 115.482,247.665 112.482,247.498 109.5,247C 108.667,246.167 107.833,245.333 107,244.5C 106.672,240.354 105.839,236.354 104.5,232.5C 105.893,230.489 106.56,228.155 106.5,225.5C 104.82,220.38 104.153,215.047 104.5,209.5 Z"/></g>
<g><path style="opacity:1" fill="#30589b" d="M 136.5,225.5 C 135.529,231.857 134.362,238.19 133,244.5C 132.564,247.398 131.397,249.731 129.5,251.5C 128.167,250.833 126.833,250.167 125.5,249.5C 124.5,249.5 123.5,249.5 122.5,249.5C 121.817,247.824 120.483,247.157 118.5,247.5C 115.761,244.767 113.427,241.767 111.5,238.5C 117.668,230.247 126.002,225.914 136.5,225.5 Z"/></g>
<g><path style="opacity:1" fill="#deeeeb" d="M 456.5,235.5 C 462.009,235.875 467.342,236.542 472.5,237.5C 466.886,237.927 461.553,237.26 456.5,235.5 Z"/></g>
<g><path style="opacity:1" fill="#f3f7f5" d="M 518.5,217.5 C 518.334,221.514 518.501,225.514 519,229.5C 519.308,232.47 520.808,234.47 523.5,235.5C 522.064,243.551 518.397,250.217 512.5,255.5C 508.5,257.833 504.5,260.167 500.5,262.5C 500.158,261.662 499.492,261.328 498.5,261.5C 504.766,257.069 510.266,251.736 515,245.5C 515.36,243.392 516.027,241.392 517,239.5C 517.171,231.989 517.671,224.655 518.5,217.5 Z"/></g>
<g><path style="opacity:1" fill="#2382c5" d="M 455.5,235.5 C 455.5,236.167 455.5,236.833 455.5,237.5C 452.949,240.23 451.616,239.563 451.5,235.5C 452.451,234.081 452.784,232.415 452.5,230.5C 453.5,230.5 454.5,230.5 455.5,230.5C 455.5,232.167 455.5,233.833 455.5,235.5 Z"/></g>
<g><path style="opacity:1" fill="#7ccedc" d="M 455.5,235.5 C 455.833,235.5 456.167,235.5 456.5,235.5C 461.553,237.26 466.886,237.927 472.5,237.5C 473.167,237.5 473.833,237.5 474.5,237.5C 476.838,239.04 479.505,239.706 482.5,239.5C 481.129,240.787 479.295,241.453 477,241.5C 469.473,241.441 462.307,240.107 455.5,237.5C 455.5,236.833 455.5,236.167 455.5,235.5 Z"/></g>
<g><path style="opacity:1" fill="#eff3fa" d="M 347.5,234.5 C 350.706,244.517 353.04,254.85 354.5,265.5C 353.07,267.155 352.236,269.155 352,271.5C 337.912,270.51 323.745,270.176 309.5,270.5C 308.677,259.513 308.011,248.513 307.5,237.5C 320.833,237.5 334.167,237.5 347.5,237.5C 347.5,236.5 347.5,235.5 347.5,234.5 Z"/></g>
<g><path style="opacity:1" fill="#073d61" d="M 367.5,231.5 C 368.306,232.997 368.972,234.664 369.5,236.5C 374.792,237.495 380.125,237.828 385.5,237.5C 385.5,243.5 385.5,249.5 385.5,255.5C 384.596,256.209 384.263,257.209 384.5,258.5C 378.5,258.833 372.5,259.167 366.5,259.5C 366.5,262.167 366.5,264.833 366.5,267.5C 365.835,264.686 365.502,261.686 365.5,258.5C 366.496,249.524 367.163,240.524 367.5,231.5 Z"/></g>
<g><path style="opacity:1" fill="#3490d1" d="M 429.5,235.5 C 429.616,238.91 427.95,240.244 424.5,239.5C 424.5,238.167 424.5,236.833 424.5,235.5C 424.5,233.833 424.5,232.167 424.5,230.5C 426.167,230.5 427.833,230.5 429.5,230.5C 429.5,232.167 429.5,233.833 429.5,235.5 Z"/></g>
<g><path style="opacity:1" fill="#2bb2e7" d="M 437.5,230.5 C 438.211,232.842 439.544,233.175 441.5,231.5C 442.833,232.167 443.833,233.167 444.5,234.5C 443.802,236.667 442.469,238.5 440.5,240C 439.258,240.311 438.258,239.811 437.5,238.5C 436.478,238.855 435.811,239.522 435.5,240.5C 433.787,239.365 433.12,237.698 433.5,235.5C 434.604,233.611 435.937,231.945 437.5,230.5 Z"/></g>
<g><path style="opacity:1" fill="#fcfdfd" d="M 500.5,231.5 C 501.718,236.712 501.551,242.046 500,247.5C 497.243,250.741 494.743,254.074 492.5,257.5C 493.726,262.993 495.059,268.326 496.5,273.5C 496.5,273.833 496.5,274.167 496.5,274.5C 496.328,275.492 496.662,276.158 497.5,276.5C 497.232,278.099 497.566,279.432 498.5,280.5C 498.5,281.833 498.5,283.167 498.5,284.5C 500.816,293.732 502.483,303.065 503.5,312.5C 502.833,312.5 502.5,312.833 502.5,313.5C 497.568,315.954 492.568,316.954 487.5,316.5C 488.139,315.903 488.472,315.07 488.5,314C 487.877,310.519 487.377,307.019 487,303.5C 484.344,292.652 482.344,281.652 481,270.5C 480.299,267.673 479.299,265.006 478,262.5C 477.333,275.167 477.333,287.833 478,300.5C 479.351,306.072 479.851,311.738 479.5,317.5C 474.807,320.443 469.474,321.943 463.5,322C 459.5,322.167 455.5,322.333 451.5,322.5C 447.107,322.491 443.107,321.824 439.5,320.5C 438.872,298.79 437.539,277.123 435.5,255.5C 432.293,274.006 430.293,292.673 429.5,311.5C 429.604,314.769 430.27,317.769 431.5,320.5C 421.143,322.89 410.809,322.557 400.5,319.5C 401.334,300.825 401.334,282.158 400.5,263.5C 396.88,279.986 393.547,296.486 390.5,313C 391.337,314.011 391.67,315.178 391.5,316.5C 390.054,317.613 388.387,317.78 386.5,317C 382.541,316.125 378.875,314.625 375.5,312.5C 377.3,302.172 378.966,291.838 380.5,281.5C 381.966,280.653 382.8,279.32 383,277.5C 384.186,270.091 385.686,262.758 387.5,255.5C 388.407,253.343 389.073,251.01 389.5,248.5C 390.522,245.639 392.022,242.972 394,240.5C 394.236,242.119 395.069,243.119 396.5,243.5C 396.5,244.167 396.833,244.5 397.5,244.5C 422.11,247.991 446.777,248.325 471.5,245.5C 474.7,245.601 477.7,246.268 480.5,247.5C 481.696,247.154 481.696,246.654 480.5,246C 483.33,245.131 485.997,243.964 488.5,242.5C 489.386,241.675 489.719,240.675 489.5,239.5C 487.167,239.5 484.833,239.5 482.5,239.5C 479.505,239.706 476.838,239.04 474.5,237.5C 475.833,237.5 477.167,237.5 478.5,237.5C 484.778,238.79 491.112,238.79 497.5,237.5C 498.519,235.396 499.519,233.396 500.5,231.5 Z"/></g>
<g><path style="opacity:1" fill="#644225" d="M 279.5,183.5 C 280.497,183.47 281.164,183.97 281.5,185C 278.682,196.076 276.349,207.243 274.5,218.5C 272.272,227.803 270.106,237.136 268,246.5C 265.8,248.253 264.633,250.586 264.5,253.5C 266.553,264.987 268.553,276.487 270.5,288C 269.833,291.333 269.167,291.333 268.5,288C 266.011,275.567 264.011,263.067 262.5,250.5C 257.5,250.5 252.5,250.5 247.5,250.5C 247.5,249.833 247.5,249.167 247.5,248.5C 253.176,248.666 258.843,248.499 264.5,248C 265.701,247.097 266.535,245.931 267,244.5C 267.731,240.435 268.565,236.435 269.5,232.5C 272.832,216.181 276.165,199.848 279.5,183.5 Z"/></g>
<g><path style="opacity:1" fill="#e1f4f7" d="M 442.5,218.5 C 444.167,218.5 445.833,218.5 447.5,218.5C 447.194,221.385 447.527,224.052 448.5,226.5C 447.945,230.012 448.612,233.012 450.5,235.5C 450.833,235.5 451.167,235.5 451.5,235.5C 451.616,239.563 452.949,240.23 455.5,237.5C 462.307,240.107 469.473,241.441 477,241.5C 479.295,241.453 481.129,240.787 482.5,239.5C 484.833,239.5 487.167,239.5 489.5,239.5C 489.719,240.675 489.386,241.675 488.5,242.5C 485.997,243.964 483.33,245.131 480.5,246C 481.696,246.654 481.696,247.154 480.5,247.5C 477.7,246.268 474.7,245.601 471.5,245.5C 446.777,248.325 422.11,247.991 397.5,244.5C 403.599,242.985 409.932,242.151 416.5,242C 418.059,241.02 419.726,240.187 421.5,239.5C 420.5,239.167 419.5,238.833 418.5,238.5C 413.519,239.165 408.519,239.665 403.5,240C 400.697,240.615 398.364,241.782 396.5,243.5C 395.069,243.119 394.236,242.119 394,240.5C 392.022,242.972 390.522,245.639 389.5,248.5C 389.123,243.531 391.123,240.198 395.5,238.5C 396.791,238.737 397.791,238.404 398.5,237.5C 400.415,237.784 402.081,237.451 403.5,236.5C 409.36,236.283 415.027,235.617 420.5,234.5C 420.833,234.5 421.167,234.5 421.5,234.5C 421.842,235.338 422.508,235.672 423.5,235.5C 423.833,235.5 424.167,235.5 424.5,235.5C 424.5,236.833 424.5,238.167 424.5,239.5C 427.95,240.244 429.616,238.91 429.5,235.5C 430.964,234.595 432.298,234.595 433.5,235.5C 433.12,237.698 433.787,239.365 435.5,240.5C 438.855,244.559 442.021,244.225 445,239.5C 445.64,237.735 445.473,236.068 444.5,234.5C 443.833,233.167 442.833,232.167 441.5,231.5C 441.5,230.167 441.5,228.833 441.5,227.5C 441.5,225.167 441.5,222.833 441.5,220.5C 442.338,220.158 442.672,219.492 442.5,218.5 Z"/></g>
<g><path style="opacity:1" fill="#4194f1" d="M 444.5,234.5 C 445.473,236.068 445.64,237.735 445,239.5C 442.021,244.225 438.855,244.559 435.5,240.5C 435.811,239.522 436.478,238.855 437.5,238.5C 438.258,239.811 439.258,240.311 440.5,240C 442.469,238.5 443.802,236.667 444.5,234.5 Z"/></g>
<g><path style="opacity:1" fill="#75c8da" d="M 397.5,244.5 C 396.833,244.5 396.5,244.167 396.5,243.5C 398.364,241.782 400.697,240.615 403.5,240C 408.519,239.665 413.519,239.165 418.5,238.5C 419.5,238.833 420.5,239.167 421.5,239.5C 419.726,240.187 418.059,241.02 416.5,242C 409.932,242.151 403.599,242.985 397.5,244.5 Z"/></g>
<g><path style="opacity:1" fill="#54c5ef" d="M 394.5,236.5 C 394.328,237.492 394.662,238.158 395.5,238.5C 391.123,240.198 389.123,243.531 389.5,248.5C 389.073,251.01 388.407,253.343 387.5,255.5C 386.833,255.5 386.167,255.5 385.5,255.5C 385.5,249.5 385.5,243.5 385.5,237.5C 388.482,237.037 391.482,236.704 394.5,236.5 Z"/></g>
<g><path style="opacity:1" fill="#863a28" d="M 223.5,223.5 C 225.5,223.5 227.5,223.5 229.5,223.5C 230.828,234.45 231.828,245.45 232.5,256.5C 230.626,264.999 229.96,273.666 230.5,282.5C 229.833,288.167 229.167,293.833 228.5,299.5C 225.6,299.592 223.933,298.259 223.5,295.5C 221.362,282.926 220.029,270.26 219.5,257.5C 219.993,246.051 221.326,234.717 223.5,223.5 Z"/></g>
<g><path style="opacity:1" fill="#674426" d="M 354.5,255.5 C 355.769,261.54 357.269,267.54 359,273.5C 359.5,274 360,274.5 360.5,275C 364.486,275.499 368.486,275.666 372.5,275.5C 374.38,275.229 375.713,275.896 376.5,277.5C 371.833,277.5 367.167,277.5 362.5,277.5C 360.598,290.913 358.264,304.247 355.5,317.5C 355.167,316.5 354.833,315.5 354.5,314.5C 356.564,302.678 358.564,290.845 360.5,279C 357.041,275.115 355.041,270.615 354.5,265.5C 353.04,254.85 350.706,244.517 347.5,234.5C 347.784,232.585 347.451,230.919 346.5,229.5C 346.142,223.71 345.142,218.044 343.5,212.5C 343.369,211.624 343.702,210.957 344.5,210.5C 348.595,225.305 351.928,240.305 354.5,255.5 Z"/></g>
<g><path style="opacity:1" fill="#eff1f6" d="M 122.5,249.5 C 123.5,249.5 124.5,249.5 125.5,249.5C 126.639,255.139 126.639,260.805 125.5,266.5C 124.766,267.708 124.433,269.041 124.5,270.5C 119.073,270.218 113.74,270.551 108.5,271.5C 109.5,264.167 110.5,256.833 111.5,249.5C 115.167,249.5 118.833,249.5 122.5,249.5 Z"/></g>
<g><path style="opacity:1" fill="#b68e6d" d="M 523.5,235.5 C 525.483,235.157 526.817,235.824 527.5,237.5C 524.495,249.001 521.661,260.667 519,272.5C 518.25,273.126 517.416,273.626 516.5,274C 509.842,274.5 503.175,274.666 496.5,274.5C 496.5,274.167 496.5,273.833 496.5,273.5C 510.606,275.088 515.939,269.088 512.5,255.5C 518.397,250.217 522.064,243.551 523.5,235.5 Z"/></g>
<g><path style="opacity:1" fill="#4f89b2" d="M 295.5,199.5 C 298.194,226.3 300.194,253.3 301.5,280.5C 300.167,280.5 298.833,280.5 297.5,280.5C 296.733,253.503 296.067,226.503 295.5,199.5 Z"/></g>
<g><path style="opacity:1" fill="#4b87b0" d="M 289.5,281.5 C 288.833,281.5 288.167,281.5 287.5,281.5C 286.172,276.544 285.505,271.211 285.5,265.5C 286.205,243.495 287.039,221.495 288,199.5C 289.224,226.82 289.724,254.153 289.5,281.5 Z"/></g>
<g><path style="opacity:1" fill="#e6f9fc" d="M 187.5,298.5 C 183.534,297.838 179.534,297.505 175.5,297.5C 178.287,275.507 180.787,253.507 183,231.5C 184.955,253.779 186.455,276.113 187.5,298.5 Z"/></g>
<g><path style="opacity:1" fill="#664c38" d="M 125.5,249.5 C 126.833,250.167 128.167,250.833 129.5,251.5C 129.817,256.676 129.151,261.676 127.5,266.5C 126.833,266.5 126.167,266.5 125.5,266.5C 126.639,260.805 126.639,255.139 125.5,249.5 Z"/></g>
<g><path style="opacity:1" fill="#ebb88e" d="M 498.5,261.5 C 499.492,261.328 500.158,261.662 500.5,262.5C 499.599,264.727 497.933,265.727 495.5,265.5C 495.5,264.167 495.5,262.833 495.5,261.5C 496.5,261.5 497.5,261.5 498.5,261.5 Z"/></g>
<g><path style="opacity:1" fill="#105489" d="M 385.5,255.5 C 386.167,255.5 386.833,255.5 387.5,255.5C 385.686,262.758 384.186,270.091 383,277.5C 382.8,279.32 381.966,280.653 380.5,281.5C 379.833,280.167 378.833,279.167 377.5,278.5C 377.5,277.833 377.167,277.5 376.5,277.5C 375.713,275.896 374.38,275.229 372.5,275.5C 369.935,273.229 367.935,270.562 366.5,267.5C 366.5,264.833 366.5,262.167 366.5,259.5C 372.5,259.167 378.5,258.833 384.5,258.5C 384.263,257.209 384.596,256.209 385.5,255.5 Z"/></g>
<g><path style="opacity:1" fill="#b38868" d="M 364.5,213.5 C 364.833,213.5 365.167,213.5 365.5,213.5C 365.216,215.415 365.549,217.081 366.5,218.5C 366.586,222.857 366.92,227.19 367.5,231.5C 367.163,240.524 366.496,249.524 365.5,258.5C 365.502,261.686 365.835,264.686 366.5,267.5C 367.935,270.562 369.935,273.229 372.5,275.5C 368.486,275.666 364.486,275.499 360.5,275C 360,274.5 359.5,274 359,273.5C 357.269,267.54 355.769,261.54 354.5,255.5C 357.445,243.032 360.112,230.366 362.5,217.5C 360.56,214.804 361.227,213.471 364.5,213.5 Z"/></g>
<g><path style="opacity:1" fill="#475e8d" d="M 125.5,266.5 C 126.167,266.5 126.833,266.5 127.5,266.5C 126.627,271.531 125.627,276.531 124.5,281.5C 124.167,281.5 123.833,281.5 123.5,281.5C 122.167,281.5 120.833,281.5 119.5,281.5C 121.424,277.983 123.091,274.316 124.5,270.5C 124.433,269.041 124.766,267.708 125.5,266.5 Z"/></g>
<g><path style="opacity:1" fill="#e7f9fb" d="M 400.5,319.5 C 399.596,318.791 399.263,317.791 399.5,316.5C 396.833,316.5 394.167,316.5 391.5,316.5C 391.67,315.178 391.337,314.011 390.5,313C 393.547,296.486 396.88,279.986 400.5,263.5C 401.334,282.158 401.334,300.825 400.5,319.5 Z"/></g>
<g><path style="opacity:1" fill="#5e4026" d="M 527.5,237.5 C 527.5,238.167 527.5,238.833 527.5,239.5C 527.495,243.534 527.162,247.534 526.5,251.5C 524.286,257.919 522.619,264.586 521.5,271.5C 519.813,273.832 518.479,276.332 517.5,279C 517.605,280.592 517.939,282.092 518.5,283.5C 519.933,293.365 521.6,303.198 523.5,313C 523.167,314.167 522.833,315.333 522.5,316.5C 519.611,303.944 517.277,291.277 515.5,278.5C 511.627,276.57 507.294,275.903 502.5,276.5C 501.072,279.072 499.738,281.739 498.5,284.5C 498.5,283.167 498.5,281.833 498.5,280.5C 499.124,280.083 499.457,279.416 499.5,278.5C 499.253,277.287 498.586,276.62 497.5,276.5C 496.662,276.158 496.328,275.492 496.5,274.5C 503.175,274.666 509.842,274.5 516.5,274C 517.416,273.626 518.25,273.126 519,272.5C 521.661,260.667 524.495,249.001 527.5,237.5 Z"/></g>
<g><path style="opacity:1" fill="#4c83a8" d="M 526.5,251.5 C 526.827,261.681 526.494,271.681 525.5,281.5C 524.5,281.5 523.5,281.5 522.5,281.5C 522.813,277.958 522.479,274.625 521.5,271.5C 522.619,264.586 524.286,257.919 526.5,251.5 Z"/></g>
<g><path style="opacity:1" fill="#e6f9fb" d="M 147.5,295.5 C 143.358,294.789 139.358,294.455 135.5,294.5C 136.822,294.67 137.989,294.337 139,293.5C 142.004,275.463 145.171,257.463 148.5,239.5C 149.155,258.169 148.821,276.836 147.5,295.5 Z"/></g>
<g><path style="opacity:1" fill="#e4e9f0" d="M 274.5,218.5 C 275.139,219.097 275.472,219.93 275.5,221C 273.132,241.441 271.466,261.941 270.5,282.5C 270.624,284.582 271.624,286.082 273.5,287C 271.901,288.786 271.067,290.953 271,293.5C 270,294.833 269,294.833 268,293.5C 267.51,292.207 267.343,290.873 267.5,289.5C 263.588,288.956 261.255,290.623 260.5,294.5C 258.812,292.971 257.479,291.137 256.5,289C 260,290.192 262,288.859 262.5,285C 261.152,280.589 260.152,276.089 259.5,271.5C 256.505,270.276 253.505,270.276 250.5,271.5C 247.782,264.827 246.782,257.827 247.5,250.5C 252.5,250.5 257.5,250.5 262.5,250.5C 264.011,263.067 266.011,275.567 268.5,288C 269.167,291.333 269.833,291.333 270.5,288C 268.553,276.487 266.553,264.987 264.5,253.5C 264.633,250.586 265.8,248.253 268,246.5C 270.106,237.136 272.272,227.803 274.5,218.5 Z"/></g>
<g><path style="opacity:1" fill="#e6f9fb" d="M 439.5,320.5 C 436.833,320.5 434.167,320.5 431.5,320.5C 430.27,317.769 429.604,314.769 429.5,311.5C 430.293,292.673 432.293,274.006 435.5,255.5C 437.539,277.123 438.872,298.79 439.5,320.5 Z"/></g>
<g><path style="opacity:1" fill="#f6f8f7" d="M 232.5,256.5 C 237.478,269.482 242.812,282.482 248.5,295.5C 247.288,294.77 246.288,293.77 245.5,292.5C 242.828,293.503 240.162,294.503 237.5,295.5C 235.218,294.777 232.884,294.443 230.5,294.5C 230.5,290.5 230.5,286.5 230.5,282.5C 229.96,273.666 230.626,264.999 232.5,256.5 Z"/></g>
<g><path style="opacity:1" fill="#dae3f1" d="M 540.5,263.5 C 541.468,265.607 541.802,267.941 541.5,270.5C 554.315,269.207 566.648,270.874 578.5,275.5C 586.221,279.26 591.388,285.26 594,293.5C 595.478,302.377 592.645,309.543 585.5,315C 573.509,322.167 560.509,325.834 546.5,326C 512.326,325.344 478.326,327.344 444.5,332C 432.646,336.7 420.312,339.366 407.5,340C 372.83,341.917 338.163,341.917 303.5,340C 296.125,338.882 288.791,337.549 281.5,336C 272.724,333.64 264.058,330.973 255.5,328C 218.167,328.333 180.833,328.667 143.5,329C 124.009,328.418 104.676,326.418 85.5,323C 74.0691,320.363 63.4024,316.029 53.5,310C 44.2114,301.182 44.2114,292.348 53.5,283.5C 69.6731,273.627 87.3398,268.961 106.5,269.5C 104.513,276.086 103.846,282.753 104.5,289.5C 105.749,283.354 107.083,277.354 108.5,271.5C 113.74,270.551 119.073,270.218 124.5,270.5C 123.091,274.316 121.424,277.983 119.5,281.5C 118.624,281.369 117.957,281.702 117.5,282.5C 121.68,290.441 123.68,290.107 123.5,281.5C 123.833,281.5 124.167,281.5 124.5,281.5C 124.232,284.119 124.565,286.619 125.5,289C 124.833,289.333 124.167,289.667 123.5,290C 127.289,292.112 131.289,293.612 135.5,294.5C 139.358,294.455 143.358,294.789 147.5,295.5C 147.62,296.586 148.287,297.253 149.5,297.5C 155.442,298.659 161.442,299.326 167.5,299.5C 170.59,299.478 173.257,298.812 175.5,297.5C 179.534,297.505 183.534,297.838 187.5,298.5C 189.048,299.794 191.048,300.461 193.5,300.5C 203.499,299.75 213.499,299.083 223.5,298.5C 223.5,300.167 223.5,301.833 223.5,303.5C 221.692,303.491 220.025,303.991 218.5,305C 222.152,305.499 225.818,305.665 229.5,305.5C 229.768,303.901 229.434,302.568 228.5,301.5C 228.5,300.833 228.5,300.167 228.5,299.5C 229.167,293.833 229.833,288.167 230.5,282.5C 230.5,286.5 230.5,290.5 230.5,294.5C 232.884,294.443 235.218,294.777 237.5,295.5C 240.162,294.503 242.828,293.503 245.5,292.5C 246.288,293.77 247.288,294.77 248.5,295.5C 249.473,297.139 250.806,298.473 252.5,299.5C 252.5,301.833 252.5,304.167 252.5,306.5C 250.842,307.181 249.175,308.015 247.5,309C 253.609,309.866 257.109,307.366 258,301.5C 257.23,300.402 256.397,300.402 255.5,301.5C 255.5,300.833 255.5,300.167 255.5,299.5C 256.124,299.083 256.457,298.416 256.5,297.5C 254.498,288.814 252.498,280.147 250.5,271.5C 253.505,270.276 256.505,270.276 259.5,271.5C 260.152,276.089 261.152,280.589 262.5,285C 262,288.859 260,290.192 256.5,289C 257.479,291.137 258.812,292.971 260.5,294.5C 261.255,290.623 263.588,288.956 267.5,289.5C 267.343,290.873 267.51,292.207 268,293.5C 269,294.833 270,294.833 271,293.5C 271.067,290.953 271.901,288.786 273.5,287C 271.624,286.082 270.624,284.582 270.5,282.5C 273.666,282.766 276.833,283.099 280,283.5C 282.821,283.592 285.321,282.926 287.5,281.5C 288.167,281.5 288.833,281.5 289.5,281.5C 290.151,282.091 290.818,282.757 291.5,283.5C 297.694,281.747 304.027,281.081 310.5,281.5C 310.276,277.821 309.942,274.154 309.5,270.5C 323.745,270.176 337.912,270.51 352,271.5C 352.236,269.155 353.07,267.155 354.5,265.5C 355.041,270.615 357.041,275.115 360.5,279C 358.564,290.845 356.564,302.678 354.5,314.5C 354.833,315.5 355.167,316.5 355.5,317.5C 358.264,304.247 360.598,290.913 362.5,277.5C 367.167,277.5 371.833,277.5 376.5,277.5C 377.167,277.5 377.5,277.833 377.5,278.5C 377.198,289.947 375.865,301.281 373.5,312.5C 373.733,317.615 374.4,317.615 375.5,312.5C 378.875,314.625 382.541,316.125 386.5,317C 388.387,317.78 390.054,317.613 391.5,316.5C 394.167,316.5 396.833,316.5 399.5,316.5C 399.263,317.791 399.596,318.791 400.5,319.5C 410.809,322.557 421.143,322.89 431.5,320.5C 434.167,320.5 436.833,320.5 439.5,320.5C 443.107,321.824 447.107,322.491 451.5,322.5C 455.5,322.333 459.5,322.167 463.5,322C 469.474,321.943 474.807,320.443 479.5,317.5C 482.127,316.908 484.794,316.575 487.5,316.5C 492.568,316.954 497.568,315.954 502.5,313.5C 502.5,314.5 502.5,315.5 502.5,316.5C 503.5,316.5 504.5,316.5 505.5,316.5C 505.771,314.62 505.104,313.287 503.5,312.5C 502.483,303.065 500.816,293.732 498.5,284.5C 499.738,281.739 501.072,279.072 502.5,276.5C 502.5,278.167 502.5,279.833 502.5,281.5C 506.5,281.5 510.5,281.5 514.5,281.5C 514.263,280.209 514.596,279.209 515.5,278.5C 517.277,291.277 519.611,303.944 522.5,316.5C 522.833,315.333 523.167,314.167 523.5,313C 521.6,303.198 519.933,293.365 518.5,283.5C 520.199,283.473 521.533,282.806 522.5,281.5C 523.5,281.5 524.5,281.5 525.5,281.5C 526.624,282.809 528.124,283.475 530,283.5C 533.541,282.971 537.041,282.304 540.5,281.5C 541.306,275.528 541.306,269.528 540.5,263.5 Z"/></g>
<g><path style="opacity:1" fill="#3f1c19" d="M 119.5,281.5 C 120.833,281.5 122.167,281.5 123.5,281.5C 123.68,290.107 121.68,290.441 117.5,282.5C 117.957,281.702 118.624,281.369 119.5,281.5 Z"/></g>
<g><path style="opacity:1" fill="#93b9d7" d="M 521.5,271.5 C 522.479,274.625 522.813,277.958 522.5,281.5C 521.533,282.806 520.199,283.473 518.5,283.5C 517.939,282.092 517.605,280.592 517.5,279C 518.479,276.332 519.813,273.832 521.5,271.5 Z"/></g>
<g><path style="opacity:1" fill="#8cb1ce" d="M 502.5,276.5 C 507.294,275.903 511.627,276.57 515.5,278.5C 514.596,279.209 514.263,280.209 514.5,281.5C 510.5,281.5 506.5,281.5 502.5,281.5C 502.5,279.833 502.5,278.167 502.5,276.5 Z"/></g>
<g><path style="opacity:1" fill="#535f7c" d="M 497.5,276.5 C 498.586,276.62 499.253,277.287 499.5,278.5C 499.457,279.416 499.124,280.083 498.5,280.5C 497.566,279.432 497.232,278.099 497.5,276.5 Z"/></g>
<g><path style="opacity:1" fill="#644930" d="M 377.5,278.5 C 378.833,279.167 379.833,280.167 380.5,281.5C 378.966,291.838 377.3,302.172 375.5,312.5C 374.4,317.615 373.733,317.615 373.5,312.5C 375.865,301.281 377.198,289.947 377.5,278.5 Z"/></g>
<g><path style="opacity:1" fill="#e9f9fb" d="M 487.5,316.5 C 484.794,316.575 482.127,316.908 479.5,317.5C 479.851,311.738 479.351,306.072 478,300.5C 477.333,287.833 477.333,275.167 478,262.5C 479.299,265.006 480.299,267.673 481,270.5C 482.344,281.652 484.344,292.652 487,303.5C 487.377,307.019 487.877,310.519 488.5,314C 488.472,315.07 488.139,315.903 487.5,316.5 Z"/></g>
<g><path style="opacity:1" fill="#dca188" d="M 252.5,299.5 C 253.5,299.5 254.5,299.5 255.5,299.5C 255.5,300.167 255.5,300.833 255.5,301.5C 255.25,303.674 254.25,305.341 252.5,306.5C 252.5,304.167 252.5,301.833 252.5,299.5 Z"/></g>
<g><path style="opacity:1" fill="#e7916c" d="M 223.5,295.5 C 223.933,298.259 225.6,299.592 228.5,299.5C 228.5,300.167 228.5,300.833 228.5,301.5C 227.22,302.931 225.553,303.598 223.5,303.5C 223.5,301.833 223.5,300.167 223.5,298.5C 223.5,297.5 223.5,296.5 223.5,295.5 Z"/></g>
<g><path style="opacity:1" fill="#303a42" d="M 228.5,301.5 C 229.434,302.568 229.768,303.901 229.5,305.5C 225.818,305.665 222.152,305.499 218.5,305C 220.025,303.991 221.692,303.491 223.5,303.5C 225.553,303.598 227.22,302.931 228.5,301.5 Z"/></g>
<g><path style="opacity:1" fill="#1d333e" d="M 252.5,306.5 C 254.25,305.341 255.25,303.674 255.5,301.5C 256.397,300.402 257.23,300.402 258,301.5C 257.109,307.366 253.609,309.866 247.5,309C 249.175,308.015 250.842,307.181 252.5,306.5 Z"/></g>
<g><path style="opacity:1" fill="#5a76ae" d="M 503.5,312.5 C 505.104,313.287 505.771,314.62 505.5,316.5C 504.5,316.5 503.5,316.5 502.5,316.5C 502.5,315.5 502.5,314.5 502.5,313.5C 502.5,312.833 502.833,312.5 503.5,312.5 Z"/></g>
</svg>
