<?xml version="1.0" standalone="no"?>
<!DOCTYPE svg PUBLIC "-//W3C//DTD SVG 20010904//EN"
 "http://www.w3.org/TR/2001/REC-SVG-20010904/DTD/svg10.dtd">
<svg version="1.0" xmlns="http://www.w3.org/2000/svg"
 width="338.000000pt" height="338.000000pt" viewBox="0 0 338.000000 338.000000"
 preserveAspectRatio="xMidYMid meet">

<g transform="translate(0.000000,338.000000) scale(0.100000,-0.100000)"
fill="#000000" stroke="none">
<path d="M972 3278 c-2 -98 -4 -108 -21 -108 -26 0 -67 -45 -75 -81 -3 -18 -6
-60 -6 -95 l0 -64 -52 0 c-35 0 -60 -6 -74 -18 -23 -18 -44 -53 -44 -71 0 -8
89 -11 281 -11 l280 0 -6 23 c-4 12 -20 34 -36 50 -25 23 -38 27 -84 27 l-55
0 0 83 c0 97 -21 144 -70 153 l-29 6 -4 107 -3 106 -2 -107z"/>
<path d="M2392 3278 c-2 -87 -5 -108 -16 -108 -8 0 -28 -11 -43 -24 -26 -23
-28 -31 -33 -118 l-5 -93 -57 -5 c-62 -6 -102 -33 -111 -76 l-4 -24 278 0
c191 0 279 3 279 11 0 18 -21 53 -44 71 -14 12 -39 18 -78 18 l-58 0 0 91 c0
87 -1 92 -29 120 -16 16 -39 29 -50 29 -19 0 -21 7 -24 108 l-3 107 -2 -107z"/>
<path d="M1510 2823 c-41 -15 -100 -92 -100 -129 0 -10 -6 -25 -13 -33 -10
-12 -12 -35 -8 -87 7 -78 27 -115 65 -113 21 0 21 0 1 9 -34 13 -46 36 -43 77
3 35 6 38 32 38 18 0 31 -6 33 -15 4 -12 3 -12 -5 -2 -8 11 -10 11 -15 -1 -3
-9 1 -18 8 -21 16 -6 30 35 40 115 6 44 8 47 41 54 26 4 43 1 69 -15 19 -12
40 -18 46 -14 6 3 15 0 20 -7 13 -20 11 -39 -3 -36 -23 4 -20 -30 4 -36 12 -4
24 -4 27 -2 2 3 0 30 -6 60 -5 31 -6 58 -1 61 12 8 10 48 -4 62 -7 7 -27 12
-45 12 -19 0 -50 7 -70 15 -37 16 -48 17 -73 8z"/>
<path d="M2118 2793 c6 -2 18 -2 25 0 6 3 1 5 -13 5 -14 0 -19 -2 -12 -5z"/>
<path d="M2288 2793 c6 -2 18 -2 25 0 6 3 1 5 -13 5 -14 0 -19 -2 -12 -5z"/>
<path d="M2468 2793 c7 -3 16 -2 19 1 4 3 -2 6 -13 5 -11 0 -14 -3 -6 -6z"/>
<path d="M2638 2793 c6 -2 18 -2 25 0 6 3 1 5 -13 5 -14 0 -19 -2 -12 -5z"/>
<path d="M2818 2793 c6 -2 18 -2 25 0 6 3 1 5 -13 5 -14 0 -19 -2 -12 -5z"/>
<path d="M2988 2793 c6 -2 18 -2 25 0 6 3 1 5 -13 5 -14 0 -19 -2 -12 -5z"/>
<path d="M1536 2637 c-11 -8 -16 -19 -13 -25 9 -14 79 7 74 22 -5 17 -40 18
-61 3z"/>
<path d="M1560 2580 c0 -5 5 -10 10 -10 6 0 10 5 10 10 0 6 -4 10 -10 10 -5 0
-10 -4 -10 -10z"/>
<path d="M1660 2570 c0 -5 5 -10 10 -10 6 0 10 5 10 10 0 6 -4 10 -10 10 -5 0
-10 -4 -10 -10z"/>
<path d="M2480 2449 c-25 -3 -38 -7 -29 -7 12 -2 15 -9 11 -28 -2 -14 1 -36 8
-49 7 -13 10 -31 7 -39 -4 -9 -3 -16 2 -16 5 0 11 9 14 20 6 23 31 26 87 9 30
-9 42 -20 56 -53 29 -63 36 -68 57 -34 11 18 24 28 35 26 35 -7 22 -98 -14
-98 -11 0 -14 -6 -10 -16 3 -9 6 -20 6 -26 0 -19 31 14 51 55 18 35 19 46 9
110 -10 66 -26 104 -55 133 -13 14 -168 22 -235 13z"/>
<path d="M2113 2443 c15 -2 39 -2 55 0 15 2 2 4 -28 4 -30 0 -43 -2 -27 -4z"/>
<path d="M2293 2443 c15 -2 39 -2 55 0 15 2 2 4 -28 4 -30 0 -43 -2 -27 -4z"/>
<path d="M2808 2443 c18 -2 45 -2 60 0 15 2 0 4 -33 4 -33 0 -45 -2 -27 -4z"/>
<path d="M2983 2443 c15 -2 39 -2 55 0 15 2 2 4 -28 4 -30 0 -43 -2 -27 -4z"/>
<path d="M1635 2358 c23 -42 30 -94 27 -185 l-2 -41 -62 -7 c-35 -3 -71 -9
-80 -11 -15 -5 -18 1 -18 35 0 96 -54 221 -95 221 -21 0 -19 -13 4 -27 10 -6
29 -33 41 -59 21 -43 24 -63 25 -210 l3 -163 62 -173 c69 -192 72 -199 101
-247 11 -18 18 -40 15 -47 -3 -7 -1 -16 4 -19 6 -4 10 -11 10 -18 0 -6 -20 8
-44 32 l-45 44 -7 -28 c-9 -35 4 -56 43 -69 50 -17 50 -26 0 -26 -35 0 -53 6
-77 27 -30 25 -32 30 -27 77 4 46 2 55 -28 91 -17 22 -66 90 -107 150 -73 108
-75 110 -104 101 -16 -5 -34 -10 -40 -12 -10 -2 -34 -156 -50 -328 l-7 -69 94
6 c80 4 101 2 141 -15 26 -11 46 -24 43 -28 -3 -5 3 -6 14 -3 10 3 22 0 26 -6
3 -6 3 -11 -2 -10 -38 7 -303 -3 -303 -11 0 -5 6 -10 14 -10 8 0 17 -9 21 -19
3 -10 13 -21 23 -23 9 -3 29 -27 44 -54 l27 -49 -39 -280 c-57 -408 -72 -498
-87 -513 -16 -16 -17 -49 -1 -54 8 -3 8 -23 0 -81 -13 -83 -15 -113 -8 -106 3
3 10 36 16 74 18 125 11 115 88 113 l67 -1 -65 -6 c-63 -6 -64 -6 -25 -13 117
-21 132 -21 138 1 3 12 10 21 16 21 8 0 9 -6 1 -19 -5 -11 -10 -22 -10 -25 0
-10 84 -6 100 4 13 9 13 12 -2 24 -10 7 -18 16 -18 20 0 4 215 6 477 4 l478
-3 11 -85 c7 -47 13 -91 13 -99 1 -8 4 -12 7 -8 3 3 -2 65 -12 137 l-18 131
33 134 c18 74 31 140 29 146 -2 7 -17 -43 -33 -111 -34 -141 -32 -145 -65 90
-62 444 -80 577 -80 593 0 13 8 17 34 17 35 0 63 21 51 40 -4 6 -127 10 -366
10 -335 0 -359 1 -359 18 0 15 11 17 83 18 56 0 92 6 115 18 17 9 32 19 32 22
0 4 -29 4 -65 2 -67 -5 -74 -2 -52 22 6 7 -4 3 -24 -8 -20 -12 -41 -22 -48
-22 -19 0 -12 15 17 33 15 9 38 26 52 38 l25 21 -30 -17 c-16 -10 -47 -31 -67
-47 -42 -33 -42 -33 -54 65 -3 32 -11 57 -18 57 -8 0 -8 2 0 8 8 5 7 57 -6
195 l-18 188 25 92 c36 129 37 264 3 325 -13 23 -29 42 -36 42 -8 0 -5 -14 11
-42z m679 -1102 c16 -59 30 -56 -249 -56 -197 0 -255 3 -255 13 0 9 -2 9 -9
-1 -5 -9 -24 -12 -52 -10 -43 3 -44 4 -47 40 l-3 37 305 0 c303 -1 304 -1 310
-23z m32 -231 c13 -88 30 -209 38 -270 9 -60 23 -164 31 -230 8 -66 17 -132
20 -147 l4 -27 -402 0 c-221 0 -396 3 -389 6 6 2 12 19 12 37 0 24 -9 41 -36
67 -43 41 -94 116 -94 138 0 12 -11 16 -40 16 -39 1 -41 0 -47 -38 l-6 -39
-48 6 c-26 4 -50 3 -53 -2 -2 -4 -8 -31 -11 -58 -7 -50 -7 -51 29 -72 24 -14
34 -26 30 -37 -3 -8 -11 -15 -16 -15 -6 0 -7 8 -4 17 6 14 3 14 -15 -3 -12
-10 -19 -13 -15 -6 4 6 2 12 -4 12 -7 0 -9 8 -5 19 5 17 0 21 -40 26 -40 7
-45 10 -45 34 0 14 16 139 36 276 45 313 53 376 54 394 0 12 2 12 13 -1 10
-13 44 -17 192 -23 l180 -7 -3 46 -4 46 308 -2 309 -3 21 -160z m-1113 -660
c-3 -9 -8 -14 -10 -11 -3 3 -2 9 2 15 9 16 15 13 8 -4z m262 -8 c11 -3 2 -5
-21 -6 -22 0 -49 5 -60 13 -19 15 -9 14 81 -7z m-298 -9 c-3 -8 -6 -5 -6 6 -1
11 2 17 5 13 3 -3 4 -12 1 -19z"/>
<path d="M1459 837 c-14 -12 -35 -28 -45 -35 -16 -11 -17 -14 -4 -19 8 -3 26
-18 40 -33 23 -25 27 -26 60 -14 19 7 45 13 56 13 16 1 23 9 27 34 3 17 8 40
12 50 6 14 2 17 -24 17 -21 0 -31 -5 -31 -15 0 -8 -3 -15 -7 -16 -5 0 -16 -2
-25 -4 -12 -2 -18 3 -18 15 0 28 -12 30 -41 7z"/>
<path d="M1616 824 c-3 -9 -6 -26 -6 -39 0 -22 2 -23 29 -14 35 12 73 47 66
60 -10 16 -82 11 -89 -7z"/>
<path d="M1414 744 c3 -9 6 -18 6 -20 0 -2 7 -4 15 -4 18 0 19 12 3 28 -17 17
-31 15 -24 -4z"/>
<path d="M2098 2303 c17 -2 47 -2 65 0 17 2 3 4 -33 4 -36 0 -50 -2 -32 -4z"/>
<path d="M545 2280 c-77 -12 -110 -43 -156 -150 -27 -62 -33 -88 -34 -150 0
-41 -6 -90 -14 -108 -8 -19 -11 -49 -8 -72 4 -34 0 -46 -29 -82 -57 -72 -46
-88 62 -88 60 0 64 -2 64 -22 0 -13 21 -81 46 -153 27 -77 49 -161 54 -205 13
-114 31 -197 46 -217 13 -17 13 -17 14 1 0 10 9 33 20 51 11 19 19 37 18 42
-2 4 0 8 4 8 14 0 77 69 71 78 -3 6 -1 7 5 3 14 -9 84 42 76 55 -3 5 -2 9 3 8
18 -3 31 2 56 24 l27 22 -135 70 c-74 38 -135 71 -135 73 0 2 21 31 47 65 25
34 48 64 49 66 2 2 30 -17 63 -43 35 -26 61 -40 61 -32 0 23 -22 80 -42 109
l-19 27 45 0 46 0 0 36 c0 20 -9 48 -19 63 -12 17 -18 36 -14 49 3 15 -3 29
-23 47 -27 25 -27 28 -16 71 7 24 12 59 12 77 -1 33 -35 86 -47 73 -4 -4 -1
-11 6 -16 19 -11 9 -95 -16 -128 -11 -15 -31 -29 -44 -32 -29 -7 -37 -47 -18
-91 6 -16 9 -32 5 -36 -3 -3 -11 8 -17 25 -7 22 -22 35 -49 46 -68 27 -76 65
-25 119 26 27 36 48 41 87 6 44 9 50 30 50 29 0 39 16 17 28 -14 8 -15 13 -4
25 7 9 13 32 14 51 2 43 9 45 36 10 30 -38 34 -60 16 -87 -15 -24 -20 -141 -5
-132 4 2 5 29 2 60 -4 46 -2 55 12 55 13 0 16 11 16 53 0 43 -5 58 -23 75 -12
12 -32 23 -42 25 -11 2 -27 7 -35 10 -29 11 -75 14 -115 7z m-55 -493 c0 -2
-10 -12 -22 -23 l-23 -19 19 23 c18 21 26 27 26 19z"/>
<path d="M2472 2278 c5 -15 28 -18 29 -3 0 6 -7 12 -17 13 -10 3 -15 -1 -12
-10z"/>
<path d="M2560 2276 c0 -8 13 -16 30 -18 32 -5 43 15 14 26 -26 10 -44 7 -44
-8z"/>
<path d="M2480 2240 c0 -5 5 -10 10 -10 6 0 10 5 10 10 0 6 -4 10 -10 10 -5 0
-10 -4 -10 -10z"/>
<path d="M2570 2240 c0 -5 5 -10 11 -10 5 0 7 5 4 10 -3 6 -8 10 -11 10 -2 0
-4 -4 -4 -10z"/>
<path d="M650 2065 c0 -8 5 -15 10 -15 6 0 10 7 10 15 0 8 -4 15 -10 15 -5 0
-10 -7 -10 -15z"/>
<path d="M2030 2064 c-247 -18 -243 -17 -248 -32 -3 -10 10 -12 60 -7 34 3 99
7 143 9 230 13 299 21 290 36 -7 12 -3 12 -245 -6z"/>
<path d="M673 1983 c4 -3 7 -11 7 -19 0 -18 18 -18 36 1 14 13 13 15 -4 15
-11 0 -26 2 -34 3 -7 2 -10 2 -5 0z"/>
<path d="M580 1914 c0 -6 55 -54 62 -54 5 0 8 6 8 13 -1 10 -70 51 -70 41z"/>
<path d="M1695 1590 c3 -5 2 -10 -3 -10 -6 0 -12 -7 -16 -15 -4 -11 3 -9 23 6
16 11 37 19 47 17 15 -3 12 -8 -18 -26 -21 -13 -38 -28 -38 -33 0 -6 15 1 33
15 17 13 46 32 62 40 l30 16 -63 0 c-40 0 -61 -4 -57 -10z"/>
<path d="M1765 1544 c-82 -61 -93 -76 -18 -24 54 36 95 72 82 69 -2 0 -31 -20
-64 -45z"/>
<path d="M1758 1497 c-32 -23 -58 -46 -58 -50 0 -8 47 24 110 73 48 38 5 18
-52 -23z"/>
<path d="M911 864 c0 -11 3 -14 6 -6 3 7 2 16 -1 19 -3 4 -6 -2 -5 -13z"/>
<path d="M501 848 c0 -9 -3 -22 -4 -30 -2 -7 -2 -10 0 -5 3 4 95 8 206 9 l202
3 -197 2 c-176 3 -197 5 -201 21 -4 15 -5 15 -6 0z"/>
<path d="M915 820 c3 -5 8 -10 11 -10 2 0 4 5 4 10 0 6 -5 10 -11 10 -5 0 -7
-4 -4 -10z"/>
<path d="M2945 820 c-3 -5 -1 -10 4 -10 6 0 11 5 11 10 0 6 -2 10 -4 10 -3 0
-8 -4 -11 -10z"/>
<path d="M2530 805 c0 -8 2 -15 4 -15 2 0 6 7 10 15 3 8 1 15 -4 15 -6 0 -10
-7 -10 -15z"/>
<path d="M961 644 c0 -11 3 -14 6 -6 3 7 2 16 -1 19 -3 4 -6 -2 -5 -13z"/>
<path d="M431 544 c0 -11 3 -14 6 -6 3 7 2 16 -1 19 -3 4 -6 -2 -5 -13z"/>
</g>
</svg>
